<svg width="17" height="14" viewBox="0 0 17 14" fill="none" xmlns="http://www.w3.org/2000/svg">
<path d="M14.3027 2.13269H11.9685L11.5356 1.09426C11.2582 0.428534 10.6189 0 9.90668 0H6.77556C6.06339 0 5.42301 0.428534 5.14659 1.09426L4.71376 2.13269H2.32147C1.04271 2.13269 0 3.18608 0 4.48464V11.6481C0 12.9436 1.03974 14 2.32147 14H14.3025C15.5813 14 16.624 12.9466 16.624 11.6481L16.625 4.4826C16.625 3.18606 15.5825 2.13269 14.3027 2.13269ZM15.6179 11.6461C15.6179 12.3805 15.0287 12.9775 14.3037 12.9775L2.32162 12.9785C1.59666 12.9785 1.00743 12.3816 1.00743 11.6471L1.00645 4.48263C1.00645 3.74815 1.59565 3.15118 2.32064 3.15118H5.04533C5.24698 3.15118 5.43091 3.0286 5.50863 2.84023L6.07227 1.49085C6.19031 1.20483 6.4677 1.01846 6.77462 1.01846H9.90474C10.2117 1.01846 10.4861 1.20482 10.6071 1.49085L11.1707 2.84023C11.2484 3.02859 11.4324 3.15118 11.634 3.15118H14.3038C15.0288 3.15118 15.618 3.74812 15.618 4.48263L15.62 11.646L15.6179 11.6461Z" fill="white"/>
<path d="M8.36736 4.26074C6.3528 4.26074 4.71094 5.92204 4.71094 7.96516C4.71094 10.0062 6.35071 11.6696 8.36736 11.6696C10.3819 11.6696 12.0238 10.0083 12.0238 7.96516C12.0248 5.92217 10.385 4.26074 8.36736 4.26074ZM8.36736 10.6468C6.9066 10.6468 5.71822 9.4429 5.71822 7.96286C5.71822 6.48283 6.9065 5.27895 8.36736 5.27895C9.82821 5.27895 11.0165 6.48283 11.0165 7.96286C11.0175 9.4418 9.82821 10.6468 8.36736 10.6468Z" fill="white"/>
<path d="M2.81608 3.97461C2.24457 3.97461 1.78125 4.44399 1.78125 5.02302C1.78125 5.60203 2.24455 6.07143 2.81608 6.07143C3.38758 6.07143 3.8509 5.60205 3.8509 5.02302C3.8509 4.447 3.38464 3.97461 2.81608 3.97461ZM2.78853 5.02402C2.78853 5.00907 2.80132 4.99611 2.81608 4.99611C2.83083 4.99611 2.84362 5.00907 2.84362 5.02402C2.84362 5.0569 2.78853 5.0569 2.78853 5.02402Z" fill="white"/>
</svg>
