<svg width="21" height="26" viewBox="0 0 21 26" fill="none" xmlns="http://www.w3.org/2000/svg">
<path fill-rule="evenodd" clip-rule="evenodd" d="M5.07422 11.5173L5.88001 6.6596L11.2239 6.05469C11.9753 6.37355 12.3511 6.53298 12.3511 6.53298C13.903 10.0388 14.6789 11.7917 14.6789 11.7917L18.9995 9.60906" fill="#3D2278"/>
<path d="M5.07422 11.5173L5.88001 6.6596L11.2239 6.05469C11.9753 6.37355 12.3511 6.53298 12.3511 6.53298C13.903 10.0388 14.6789 11.7917 14.6789 11.7917L18.9995 9.60906" stroke="#3D2278" stroke-width="2.27753" stroke-linecap="round" stroke-linejoin="round"/>
<path fill-rule="evenodd" clip-rule="evenodd" d="M2 24.0001L6.37023 19.4295L8.37757 13.2198L10.3544 13.615L15.2417 17.6218L9.5641 21.2604" fill="white"/>
<path d="M2 24.0001L6.37023 19.4295L8.37757 13.2198L10.3544 13.615L15.2417 17.6218L9.5641 21.2604" stroke="#3D2278" stroke-width="2.58811" stroke-linecap="round" stroke-linejoin="round"/>
<path fill-rule="evenodd" clip-rule="evenodd" d="M11.4653 6.46484L9.28516 13.7392L11.4653 6.46484Z" fill="#3D2278"/>
<path d="M11.4653 6.46484L9.28516 13.7392" stroke="#3D2278" stroke-width="4.65859"/>
<path d="M14.6631 2.1797C14.6631 3.07475 13.895 3.84177 12.8951 3.84177C11.8952 3.84177 11.127 3.07475 11.127 2.1797C11.127 1.28464 11.8952 0.517622 12.8951 0.517622C13.895 0.517622 14.6631 1.28464 14.6631 2.1797Z" fill="#3D2278" stroke="#3D2278" stroke-width="1.03524"/>
</svg>
