<svg width="20" height="25" viewBox="0 0 20 25" fill="none" xmlns="http://www.w3.org/2000/svg">
<path d="M10.9375 20.3899V23.25C10.9375 23.7675 10.5175 24.1875 10 24.1875C9.4825 24.1875 9.0625 23.7675 9.0625 23.25V20.3899C4.15875 19.9174 0.3125 15.775 0.3125 10.75C0.3125 10.2325 0.7325 9.8125 1.25 9.8125C1.7675 9.8125 2.1875 10.2325 2.1875 10.75C2.1875 15.0575 5.6925 18.5625 10 18.5625C14.3075 18.5625 17.8125 15.0575 17.8125 10.75C17.8125 10.2325 18.2325 9.8125 18.75 9.8125C19.2675 9.8125 19.6875 10.2325 19.6875 10.75C19.6875 15.775 15.8413 19.9161 10.9375 20.3899ZM10 0.125C6.89875 0.125 4.375 2.64875 4.375 5.75V10.75C4.375 13.8512 6.89875 16.375 10 16.375C13.1012 16.375 15.625 13.8512 15.625 10.75V5.75C15.625 2.64875 13.1012 0.125 10 0.125Z" fill="url(#paint0_linear_269_478)"/>
<defs>
<linearGradient id="paint0_linear_269_478" x1="0.772656" y1="1.25555" x2="22.6897" y2="4.95631" gradientUnits="userSpaceOnUse">
<stop stop-color="#5C24FC"/>
<stop offset="1" stop-color="#9D7AFF"/>
</linearGradient>
</defs>
</svg>
