<svg width="38" height="26" viewBox="0 0 38 26" fill="none" xmlns="http://www.w3.org/2000/svg">
<path d="M37.3334 4.85994V21.1397C37.3334 22.2984 35.993 22.9404 35.0892 22.2162L31.1222 19.0316C30.992 18.9271 30.9167 18.7692 30.9167 18.6023V7.39734C30.9167 7.2305 30.992 7.0726 31.1222 6.9681L35.0892 3.78349C35.993 3.05932 37.3334 3.70128 37.3334 4.85994ZM28.1667 5.6665V20.3332C28.1667 23.9998 26.3334 25.8332 22.6667 25.8332H6.16675C2.50008 25.8332 0.666748 23.9998 0.666748 20.3332V5.6665C0.666748 1.99984 2.50008 0.166504 6.16675 0.166504H22.6667C26.3334 0.166504 28.1667 1.99984 28.1667 5.6665ZM20.3751 12.9998C20.3751 12.2408 19.7591 11.6248 19.0001 11.6248H15.7917V8.4165C15.7917 7.6575 15.1757 7.0415 14.4167 7.0415C13.6577 7.0415 13.0417 7.6575 13.0417 8.4165V11.6248H9.83341C9.07441 11.6248 8.45841 12.2408 8.45841 12.9998C8.45841 13.7588 9.07441 14.3748 9.83341 14.3748H13.0417V17.5832C13.0417 18.3422 13.6577 18.9582 14.4167 18.9582C15.1757 18.9582 15.7917 18.3422 15.7917 17.5832V14.3748H19.0001C19.7591 14.3748 20.3751 13.7588 20.3751 12.9998Z" fill="url(#paint0_linear_269_371)"/>
<defs>
<linearGradient id="paint0_linear_269_371" x1="1.53758" y1="1.37242" x2="40.6842" y2="13.0999" gradientUnits="userSpaceOnUse">
<stop stop-color="#5C24FC"/>
<stop offset="1" stop-color="#9D7AFF"/>
</linearGradient>
</defs>
</svg>
