<svg width="20" height="20" viewBox="0 0 20 20" fill="none" xmlns="http://www.w3.org/2000/svg">
<path d="M11.5862 9.99904L18.6693 2.92716C18.8811 2.71545 19 2.42831 19 2.12891C19 1.8295 18.8811 1.54236 18.6693 1.33065C18.4576 1.11894 18.1705 1 17.8711 1C17.5717 1 17.2845 1.11894 17.0728 1.33065L10.001 8.41377L2.92908 1.33065C2.71737 1.11894 2.43023 1 2.13082 1C1.83142 1 1.54428 1.11894 1.33257 1.33065C1.12086 1.54236 1.00192 1.8295 1.00192 2.12891C1.00192 2.42831 1.12086 2.71545 1.33257 2.92716L8.41569 9.99904L1.33257 17.0709C1.22719 17.1754 1.14355 17.2998 1.08647 17.4368C1.02939 17.5738 1 17.7208 1 17.8692C1 18.0176 1.02939 18.1646 1.08647 18.3016C1.14355 18.4386 1.22719 18.5629 1.33257 18.6674C1.43709 18.7728 1.56144 18.8565 1.69844 18.9135C1.83545 18.9706 1.9824 19 2.13082 19C2.27925 19 2.4262 18.9706 2.56321 18.9135C2.70021 18.8565 2.82456 18.7728 2.92908 18.6674L10.001 11.5843L17.0728 18.6674C17.1774 18.7728 17.3017 18.8565 17.4387 18.9135C17.5757 18.9706 17.7227 19 17.8711 19C18.0195 19 18.1665 18.9706 18.3035 18.9135C18.4405 18.8565 18.5648 18.7728 18.6693 18.6674C18.7747 18.5629 18.8584 18.4386 18.9155 18.3016C18.9725 18.1646 19.0019 18.0176 19.0019 17.8692C19.0019 17.7208 18.9725 17.5738 18.9155 17.4368C18.8584 17.2998 18.7747 17.1754 18.6693 17.0709L11.5862 9.99904Z" fill="#0F0A19" stroke="#0F0A19" stroke-width="0.2"/>
</svg>
