<svg width="22" height="22" viewBox="0 0 22 22" fill="none" xmlns="http://www.w3.org/2000/svg">
<path opacity="0.8" fill-rule="evenodd" clip-rule="evenodd" d="M10.9989 1C5.48161 1 1 5.48163 1 10.9989C1 16.5183 5.48161 21 10.9989 21C16.5161 21 21 16.5184 21 10.9989C21 5.4815 16.5161 1 10.9989 1ZM11.4533 2.06372C11.7509 2.1541 12.0472 2.33533 12.345 2.61521C12.7941 3.03718 13.2275 3.68108 13.5948 4.49738C13.7196 4.77464 13.8365 5.07191 13.9451 5.38623H11.4533V2.06372ZM10.5443 2.06386V5.38623H8.05325C8.16189 5.07193 8.27886 4.77462 8.40368 4.49738C8.77116 3.68106 9.20466 3.03721 9.65368 2.61521C9.95132 2.33549 10.2472 2.15428 10.5443 2.06386ZM8.81234 2.17301C8.33668 2.68426 7.9252 3.34596 7.57484 4.12422C7.39841 4.51616 7.23757 4.93819 7.09389 5.38623H3.84452C5.07618 3.81755 6.81339 2.6653 8.81234 2.17301ZM13.1865 2.17323C15.1853 2.66567 16.9226 3.8178 18.1545 5.38623H14.9045C14.7609 4.93822 14.6001 4.51622 14.4237 4.12429C14.0735 3.34613 13.6622 2.68448 13.1865 2.17323ZM3.21611 6.29524H6.83543C6.51539 7.57063 6.32405 9.01147 6.29239 10.5444H1.92016C1.99627 8.99341 2.45975 7.54549 3.21611 6.29524ZM7.77641 6.29524H10.5443V10.5444H7.20161C7.23577 8.99211 7.44366 7.5423 7.77641 6.29524ZM11.4533 6.29524H14.2218C14.5543 7.54228 14.7619 8.9921 14.796 10.5444H11.4533V6.29524ZM15.1628 6.29524H18.7832C19.5399 7.54551 20.0037 8.99341 20.0798 10.5444H15.7053C15.6736 9.01148 15.4826 7.57064 15.1628 6.29524ZM1.92016 11.4533H6.29239C6.32357 12.9636 6.5095 14.3845 6.8208 15.6457H3.18116C2.44548 14.4085 1.99505 12.981 1.92016 11.4533ZM7.20161 11.4533H10.5443V15.6457H7.76093C7.43718 14.4115 7.23523 12.9822 7.20161 11.4533ZM11.4533 11.4533H14.796C14.7625 12.9822 14.5608 14.4116 14.2373 15.6457H11.4533V11.4533ZM15.7053 11.4533H20.0798C20.0049 12.981 19.5541 14.4086 18.8181 15.6458C18.8172 15.6458 18.8164 15.6458 18.8155 15.6457H15.1774C15.4885 14.3845 15.6741 12.9636 15.7053 11.4533ZM3.799 16.5548H7.07555C7.22389 17.0246 7.3908 17.4665 7.57484 17.8754C7.92523 18.6539 8.33675 19.3157 8.8125 19.827C6.78866 19.3287 5.03325 18.1537 3.799 16.5548ZM8.03309 16.5548H10.5443V19.9361C10.2472 19.8457 9.95132 19.6645 9.65368 19.3848C9.20466 18.9628 8.77125 18.3188 8.40375 17.5024C8.2712 17.2079 8.14732 16.8909 8.03309 16.5548ZM11.4533 16.5548H13.9653C13.8511 16.8909 13.7273 17.2079 13.5948 17.5024C13.2275 18.3188 12.7941 18.9628 12.345 19.3848C12.0472 19.6647 11.7509 19.8459 11.4533 19.9363V16.5548ZM14.9227 16.5548H18.2C16.9655 18.1534 15.21 19.3282 13.1864 19.8268C13.6621 19.3155 14.0736 18.6537 14.4238 17.8753C14.6077 17.4664 14.7745 17.0245 14.9227 16.5548Z" fill="#0F0A19" stroke="#0F0A19" stroke-width="0.2"/>
</svg>
