<svg width="22" height="22" viewBox="0 0 22 22" fill="none" xmlns="http://www.w3.org/2000/svg">
<g opacity="0.8">
<path d="M11.0001 5.86523C9.98454 5.86523 8.99176 6.16639 8.14733 6.73062C7.30291 7.29485 6.64475 8.09681 6.25611 9.03509C5.86746 9.97337 5.76577 11.0058 5.9639 12.0019C6.16203 12.998 6.65108 13.9129 7.36921 14.631C8.08734 15.3492 9.00229 15.8382 9.99836 16.0363C10.9944 16.2345 12.0269 16.1328 12.9652 15.7441C13.9034 15.3555 14.7054 14.6973 15.2696 13.8529C15.8339 13.0085 16.135 12.0157 16.135 11.0001C16.135 10.3258 16.0022 9.65807 15.7442 9.03507C15.4861 8.41207 15.1079 7.846 14.6311 7.36918C14.1543 6.89236 13.5882 6.51413 12.9652 6.25608C12.3422 5.99803 11.6745 5.86522 11.0001 5.86523ZM11.0001 14.3337C10.3408 14.3337 9.69628 14.1382 9.14808 13.7719C8.59987 13.4056 8.1726 12.8849 7.92029 12.2758C7.66798 11.6667 7.60196 10.9964 7.73059 10.3497C7.85923 9.70307 8.17672 9.10908 8.64294 8.64287C9.10916 8.17666 9.70315 7.85917 10.3498 7.73054C10.9965 7.60192 11.6667 7.66794 12.2759 7.92026C12.885 8.17258 13.4056 8.59986 13.7719 9.14807C14.1382 9.69628 14.3337 10.3408 14.3337 11.0001C14.3338 11.4379 14.2476 11.8714 14.0801 12.2759C13.9126 12.6804 13.667 13.0479 13.3575 13.3574C13.0479 13.667 12.6804 13.9126 12.2759 14.0801C11.8714 14.2476 11.4379 14.3338 11.0001 14.3337Z" fill="#0F0A19" stroke="white" stroke-width="0.5"/>
<path d="M20.9395 6.87719C20.9231 6.04765 20.766 5.22691 20.475 4.44993C20.2235 3.78282 19.8299 3.17837 19.3215 2.67847C18.8224 2.16961 18.2181 1.77594 17.5509 1.525C16.774 1.23378 15.9532 1.07673 15.1236 1.06054C14.0574 1.012 13.7165 1 11.0008 1C8.28515 1 7.94402 1.01126 6.87718 1.06054C6.04765 1.07693 5.22691 1.23398 4.44993 1.525C3.78263 1.77617 3.17811 2.1698 2.67847 2.67847C2.16933 3.17771 1.77565 3.78235 1.52507 4.44993C1.23406 5.22692 1.07701 6.04765 1.06061 6.87719C1.01132 7.94341 1 8.28432 1 11C1 13.7157 1.01132 14.0565 1.06059 15.1228C1.07699 15.9523 1.23405 16.7731 1.52507 17.5501C1.77573 18.2176 2.1694 18.8222 2.67847 19.3215C3.17835 19.8299 3.7828 20.2234 4.44993 20.4749C5.22694 20.7659 6.04766 20.9229 6.87718 20.9394C7.94402 20.9879 8.28432 21 11 21C13.7157 21 14.0566 20.9887 15.1228 20.9394C15.9523 20.923 16.7731 20.766 17.5501 20.4749C18.2145 20.2181 18.8179 19.8252 19.3215 19.3215C19.8252 18.8178 20.2181 18.2145 20.475 17.5501C20.7663 16.7732 20.9234 15.9523 20.9395 15.1228C20.988 14.0558 20.9992 13.7157 20.9992 11C20.9992 8.28432 20.988 7.94341 20.9395 6.87719ZM19.1405 15.0413C19.1328 15.6754 19.0164 16.3035 18.7965 16.8983C18.63 17.3296 18.3751 17.7212 18.0482 18.048C17.7213 18.3748 17.3295 18.6295 16.8982 18.7957C16.3035 19.0162 15.6753 19.1326 15.0411 19.1397C13.987 19.1882 13.6705 19.1979 10.9999 19.1979C8.32943 19.1979 8.01371 19.1882 6.95994 19.1397C6.32576 19.1325 5.69756 19.0161 5.10286 18.7957C4.66851 18.6352 4.27552 18.3797 3.95262 18.0477C3.62021 17.7256 3.36456 17.3327 3.20462 16.8983C2.98414 16.3037 2.86778 15.6754 2.86062 15.0413C2.81212 13.9872 2.80247 13.6706 2.80247 11.0001C2.80247 8.32956 2.81296 8.01384 2.86062 6.95887C2.86861 6.32479 2.98495 5.69674 3.20462 5.10187C3.36513 4.66751 3.6207 4.27452 3.95262 3.95163C4.27495 3.61903 4.66811 3.36336 5.10286 3.20363C5.69754 2.98318 6.32575 2.86681 6.95994 2.85963C8.01401 2.81114 8.33062 2.80148 10.9999 2.80148C13.6693 2.80148 13.9862 2.81197 15.0411 2.85963C15.6752 2.86762 16.3033 2.98396 16.8982 3.20363C17.3297 3.36988 17.7215 3.6247 18.0484 3.95164C18.3754 4.27859 18.6302 4.67043 18.7965 5.10188C19.0169 5.69654 19.1333 6.32472 19.1405 6.95888C19.189 8.01388 19.1986 8.32962 19.1986 11.0001C19.1986 13.6705 19.189 13.9863 19.1405 15.0413Z" fill="#0F0A19" stroke="white" stroke-width="0.5"/>
<path d="M16.3387 4.46289C16.0205 4.46295 15.7149 4.5894 15.49 4.81442C15.265 5.03944 15.1386 5.34461 15.1387 5.66279C15.1387 5.98098 15.2651 6.28612 15.4901 6.5111C15.7151 6.73608 16.0203 6.86247 16.3385 6.86247C16.6566 6.86247 16.9618 6.73608 17.1868 6.5111C17.4118 6.28612 17.5382 5.98098 17.5383 5.66279C17.5383 5.34461 17.4119 5.03944 17.187 4.81442C16.962 4.5894 16.6569 4.46295 16.3387 4.46289Z" fill="#0F0A19" stroke="white" stroke-width="0.5"/>
</g>
</svg>
