<svg width="22" height="16" viewBox="0 0 22 16" fill="none" xmlns="http://www.w3.org/2000/svg">
<g opacity="0.8">
<path fill-rule="evenodd" clip-rule="evenodd" d="M20.1481 2.3482C19.6054 1.3654 19.0175 1.1848 17.8189 1.1162C16.6216 1.0336 13.6098 1 11.002 1C8.38884 1 5.37571 1.0336 4.17979 1.1162C2.98387 1.1862 2.39457 1.3654 1.84661 2.3482C1.28798 3.331 1 5.0208 1 7.9972V8.0084C1 10.9722 1.28798 12.6746 1.84661 13.6448C2.39324 14.6262 2.98253 14.8054 4.17979 14.888C5.37571 14.958 8.38751 15 11.002 15C13.6098 15 16.6216 14.958 17.8202 14.888C19.0188 14.8054 19.6068 14.6262 20.1494 13.6448C20.7147 12.6732 21 10.9708 21 8.0084V7.9972C20.9987 5.0208 20.7147 3.331 20.1481 2.3482Z" stroke="#0F0A19" stroke-width="1.2" stroke-miterlimit="10" stroke-linecap="round" stroke-linejoin="round"/>
<path fill-rule="evenodd" clip-rule="evenodd" d="M8.99805 11.5V4.5L14.331 8L8.99805 11.5Z" stroke="#0F0A19" stroke-width="1.2" stroke-miterlimit="10" stroke-linecap="round" stroke-linejoin="round"/>
</g>
</svg>
