<svg width="19" height="11" viewBox="0 0 19 11" fill="none" xmlns="http://www.w3.org/2000/svg">
<path d="M18.5001 5.50004C18.5001 6.05204 18.0531 6.50004 17.5001 6.50004H3.91413L6.2071 8.79301C6.5981 9.18401 6.5981 9.81607 6.2071 10.2071C6.0121 10.4021 5.75607 10.5 5.50007 10.5C5.24407 10.5 4.98804 10.4021 4.79304 10.2071L0.794012 6.20805C0.701012 6.11505 0.627971 6.00512 0.576971 5.88212C0.475971 5.63812 0.475971 5.36196 0.576971 5.11796C0.627971 4.99496 0.701012 4.88503 0.794012 4.79203L4.79304 0.793006C5.18403 0.402006 5.8161 0.402006 6.2071 0.793006C6.5981 1.18401 6.5981 1.81607 6.2071 2.20707L3.91413 4.50004H17.5001C18.0531 4.50004 18.5001 4.94804 18.5001 5.50004Z" fill="white"/>
</svg>
