<svg width="18" height="11" viewBox="0 0 18 11" fill="none" xmlns="http://www.w3.org/2000/svg">
<path d="M17.7061 6.20805L13.707 10.2071C13.512 10.4021 13.256 10.5 13 10.5C12.744 10.5 12.488 10.4021 12.293 10.2071C11.902 9.81607 11.902 9.18401 12.293 8.79301L14.5859 6.50004H1C0.447 6.50004 0 6.05204 0 5.50004C0 4.94804 0.447 4.50004 1 4.50004H14.5859L12.293 2.20707C11.902 1.81607 11.902 1.18401 12.293 0.793006C12.684 0.402006 13.316 0.402006 13.707 0.793006L17.7061 4.79203C17.7991 4.88503 17.8721 4.99496 17.9231 5.11796C18.0241 5.36196 18.0241 5.63812 17.9231 5.88212C17.8721 6.00512 17.7991 6.11505 17.7061 6.20805Z" fill="white"/>
</svg>
