<svg width="18" height="19" viewBox="0 0 18 19" fill="none" xmlns="http://www.w3.org/2000/svg">
<path d="M16.9699 18.4601L15.03 17.8101C14.66 17.6901 14.2699 17.6901 13.9199 17.8501C13.0399 18.2601 12.04 18.5001 11 18.5001C9.07996 18.5001 7.33391 17.7231 6.07491 16.4691C5.88491 16.2801 6.04691 15.9511 6.30391 15.9721C11.4699 16.4411 15.9449 11.9661 15.4699 6.80011C15.4219 6.51411 15.771 6.34611 16.05 6.6701C17.983 8.5611 18.5831 11.9441 17.3501 14.4201C16.9291 15.1601 17.7899 16.7421 17.9599 17.4701C18.1599 18.0801 17.5799 18.6601 16.9699 18.4601ZM7.00093 14.4981C5.95893 14.4981 4.96286 14.2651 4.07686 13.8521C3.73486 13.6891 3.33786 13.6891 2.97286 13.8051L1.02901 14.4581C0.42301 14.6601 -0.161028 14.0771 0.0409725 13.4701L0.694049 11.5261C0.811049 11.1611 0.81093 10.7641 0.64693 10.4221C0.23493 9.53512 0.000933423 8.54011 0.000933423 7.49811C0.000933423 3.63311 3.13496 0.499146 6.99996 0.499146C10.865 0.499146 13.999 3.63311 13.999 7.49811C13.999 11.3631 10.8659 14.4981 7.00093 14.4981ZM3.24996 6.00012C3.24996 6.41412 3.58596 6.75012 3.99996 6.75012H9.99996C10.414 6.75012 10.75 6.41412 10.75 6.00012C10.75 5.58612 10.414 5.25012 9.99996 5.25012H3.99996C3.58596 5.25012 3.24996 5.58612 3.24996 6.00012ZM6.99996 9.75012C7.41396 9.75012 7.74996 9.41412 7.74996 9.00012C7.74996 8.58612 7.41396 8.25012 6.99996 8.25012H3.99996C3.58596 8.25012 3.24996 8.58612 3.24996 9.00012C3.24996 9.41412 3.58596 9.75012 3.99996 9.75012H6.99996Z" fill="url(#paint0_linear_58_345)"/>
<defs>
<linearGradient id="paint0_linear_58_345" x1="0.427742" y1="1.34491" x2="20.4877" y2="5.55129" gradientUnits="userSpaceOnUse">
<stop stop-color="#5C24FC"/>
<stop offset="1" stop-color="#9D7AFF"/>
</linearGradient>
</defs>
</svg>
