<svg width="20" height="21" viewBox="0 0 20 21" fill="none" xmlns="http://www.w3.org/2000/svg">
<path d="M10 0.5C4.48 0.5 0 4.98 0 10.5C0 16.02 4.48 20.5 10 20.5C15.52 20.5 20 16.02 20 10.5C20 4.98 15.52 0.5 10 0.5ZM14.03 8.70001L9.35999 13.36C9.21999 13.51 9.02999 13.58 8.82999 13.58C8.63999 13.58 8.44999 13.51 8.29999 13.36L5.97 11.03C5.68 10.74 5.68 10.26 5.97 9.96997C6.26 9.67997 6.74 9.67997 7.03 9.96997L8.82999 11.77L12.97 7.64001C13.26 7.34001 13.74 7.34001 14.03 7.64001C14.32 7.93001 14.32 8.40001 14.03 8.70001Z" fill="white"/>
</svg>
