<svg width="18" height="21" viewBox="0 0 18 21" fill="none" xmlns="http://www.w3.org/2000/svg">
<path d="M1.99999 18.6667C1.99999 19.95 3.04999 21 4.33333 21H13.6667C14.95 21 16 19.95 16 18.6667V7C16 5.71667 14.95 4.66667 13.6667 4.66667H4.33333C3.04999 4.66667 1.99999 5.71667 1.99999 7V18.6667ZM16 1.16667H13.0833L12.255 0.338333C12.045 0.128333 11.7417 0 11.4383 0H6.56166C6.25833 0 5.955 0.128333 5.745 0.338333L4.91666 1.16667H1.99999C1.35833 1.16667 0.833328 1.69167 0.833328 2.33333C0.833328 2.975 1.35833 3.5 1.99999 3.5H16C16.6417 3.5 17.1667 2.975 17.1667 2.33333C17.1667 1.69167 16.6417 1.16667 16 1.16667Z" fill="url(#paint0_linear_12_339)"/>
<defs>
<linearGradient id="paint0_linear_12_339" x1="9" y1="0" x2="9" y2="21" gradientUnits="userSpaceOnUse">
<stop stop-color="#FF0000"/>
<stop offset="1" stop-color="#FF6969"/>
</linearGradient>
</defs>
</svg>
