<svg width="18" height="19" viewBox="0 0 18 19" fill="none" xmlns="http://www.w3.org/2000/svg">
<path d="M18 9V15.75C18 16.44 17.44 17 16.75 17C16.06 17 15.5 16.44 15.5 15.75V7.5H16.5C17.328 7.5 18 8.172 18 9ZM16 18.5H3C1 18.5 0 17.5 0 15.5V3.5C0 1.5 1 0.5 3 0.5H11C13 0.5 14 1.5 14 3.5V16.5C14 17.605 14.896 18.5 16 18.5ZM3.25 5.5C3.25 5.914 3.586 6.25 4 6.25H7C7.414 6.25 7.75 5.914 7.75 5.5C7.75 5.086 7.414 4.75 7 4.75H4C3.586 4.75 3.25 5.086 3.25 5.5ZM10.75 13.5C10.75 13.086 10.414 12.75 10 12.75H4C3.586 12.75 3.25 13.086 3.25 13.5C3.25 13.914 3.586 14.25 4 14.25H10C10.414 14.25 10.75 13.914 10.75 13.5ZM10.75 9.5C10.75 9.086 10.414 8.75 10 8.75H4C3.586 8.75 3.25 9.086 3.25 9.5C3.25 9.914 3.586 10.25 4 10.25H10C10.414 10.25 10.75 9.914 10.75 9.5Z" fill="url(#paint0_linear_58_39)"/>
<defs>
<linearGradient id="paint0_linear_58_39" x1="0.4275" y1="1.34571" x2="20.4875" y2="5.55239" gradientUnits="userSpaceOnUse">
<stop stop-color="#5C24FC"/>
<stop offset="1" stop-color="#9D7AFF"/>
</linearGradient>
</defs>
</svg>
