<svg width="16" height="20" viewBox="0 0 16 20" fill="none" xmlns="http://www.w3.org/2000/svg">
<path d="M0.812012 8.20898C0.161012 7.59398 0.595943 6.499 1.49194 6.5H3.91406V1.5C3.91406 0.948 4.36206 0.5 4.91406 0.5H10.9141C11.4661 0.5 11.9141 0.948 11.9141 1.5V6.5H14.5081C15.4041 6.5 15.839 7.59398 15.188 8.20898L8.91309 14.137C8.40109 14.621 7.59991 14.621 7.08691 14.137L0.812012 8.20898ZM15 17.75H1C0.586 17.75 0.25 18.086 0.25 18.5C0.25 18.914 0.586 19.25 1 19.25H15C15.414 19.25 15.75 18.914 15.75 18.5C15.75 18.086 15.414 17.75 15 17.75Z" fill="url(#paint0_linear_473_134)"/>
<defs>
<linearGradient id="paint0_linear_473_134" x1="0.618125" y1="1.38094" x2="18.1255" y2="4.41596" gradientUnits="userSpaceOnUse">
<stop stop-color="#5C24FC"/>
<stop offset="1" stop-color="#9D7AFF"/>
</linearGradient>
</defs>
</svg>
