<svg width="28" height="21" viewBox="0 0 28 21" fill="none" xmlns="http://www.w3.org/2000/svg">
<path d="M14.9385 20.3438V14.7188H18.6885L14.001 9.09375L9.31348 14.7188H13.0635V20.3438H8.37598V20.2969C8.21848 20.3063 8.06848 20.3438 7.90723 20.3438C6.04242 20.3438 4.254 19.603 2.93538 18.2843C1.61677 16.9657 0.875977 15.1773 0.875977 13.3125C0.875977 9.705 3.6041 6.765 7.10473 6.36188C7.41165 4.75743 8.26807 3.31008 9.52669 2.26876C10.7853 1.22745 12.3674 0.657251 14.001 0.65625C15.6347 0.657153 17.2172 1.22727 18.4761 2.26857C19.735 3.30986 20.5918 4.75727 20.8991 6.36188C24.3997 6.765 27.1241 9.705 27.1241 13.3125C27.1241 15.1773 26.3833 16.9657 25.0647 18.2843C23.7461 19.603 21.9577 20.3438 20.0929 20.3438C19.9354 20.3438 19.7835 20.3063 19.6241 20.2969V20.3438H14.9385Z" fill="url(#paint0_linear_12_613)"/>
<defs>
<linearGradient id="paint0_linear_12_613" x1="27.1241" y1="10.5" x2="0.875977" y2="10.5" gradientUnits="userSpaceOnUse">
<stop stop-color="#9873FF"/>
<stop offset="1" stop-color="#5F28FC"/>
</linearGradient>
</defs>
</svg>
