<svg width="20" height="20" viewBox="0 0 20 20" fill="none" xmlns="http://www.w3.org/2000/svg">
<path d="M14.5 19.2497H4.5C2.082 19.2497 0.75 17.9177 0.75 15.4997V5.49973C0.75 3.08173 2.082 1.74973 4.5 1.74973H7.5C7.914 1.74973 8.25 2.08573 8.25 2.49973C8.25 2.91373 7.914 3.24973 7.5 3.24973H4.5C2.923 3.24973 2.25 3.92273 2.25 5.49973V15.4997C2.25 17.0767 2.923 17.7497 4.5 17.7497H14.5C16.077 17.7497 16.75 17.0767 16.75 15.4997V12.4997C16.75 12.0857 17.086 11.7497 17.5 11.7497C17.914 11.7497 18.25 12.0857 18.25 12.4997V15.4997C18.25 17.9177 16.918 19.2497 14.5 19.2497ZM19.08 2.52973L17.47 0.919745C16.9 0.359745 15.99 0.359724 15.42 0.929724L14.07 2.28974L17.71 5.92972L19.07 4.57972C19.64 4.00972 19.64 3.09973 19.08 2.52973ZM13.01 3.34974L6.5 9.88975V13.4997H10.11L16.65 6.98972L13.01 3.34974Z" fill="url(#paint0_linear_531_1122)"/>
<defs>
<linearGradient id="paint0_linear_531_1122" x1="1.19528" y1="1.38186" x2="22.0897" y2="5.76354" gradientUnits="userSpaceOnUse">
<stop stop-color="#5C24FC"/>
<stop offset="1" stop-color="#9D7AFF"/>
</linearGradient>
</defs>
</svg>
