<svg width="24" height="18" viewBox="0 0 24 18" fill="none" xmlns="http://www.w3.org/2000/svg">
<path d="M14.6578 9.62216L21.8 3.21559V14.8305C21.8 15.3735 21.3541 15.8153 20.8 15.8153H3.2C2.64591 15.8153 2.2 15.3735 2.2 14.8305V3.21565L9.34214 9.62216L9.34215 9.62217C10.8497 10.974 13.1502 10.974 14.6578 9.62217L14.6578 9.62216ZM10.2159 8.67027L3.00611 2.20311C3.06868 2.19106 3.13349 2.18474 3.2 2.18474H20.8C20.8665 2.18474 20.9313 2.19106 20.9939 2.20311L13.7841 8.67027L13.7841 8.67028C12.7726 9.57793 11.2274 9.57793 10.2159 8.67028L10.2159 8.67027ZM3.2 0.9C1.93114 0.9 0.9 1.91485 0.9 3.16949V14.8305C0.9 16.0852 1.93114 17.1 3.2 17.1H20.8C22.0689 17.1 23.1 16.0852 23.1 14.8305V3.16949C23.1 1.91485 22.0689 0.9 20.8 0.9H3.2Z" fill="#0F0A19" stroke="#0F0A19" stroke-width="0.2"/>
</svg>
