<svg width="12" height="12" viewBox="0 0 12 12" fill="none" xmlns="http://www.w3.org/2000/svg">
<path d="M6 0C2.62 0 0 2.47333 0 5.82C0 7.56666 0.719991 9.08 1.88666 10.1267C1.98666 10.2133 2.04667 10.34 2.04667 10.4667L2.08 11.5333C2.08666 11.8 2.30666 12.0067 2.57332 12C2.63332 12 2.69334 11.9867 2.75334 11.96L3.94668 11.4333C4.04668 11.3867 4.16 11.38 4.26666 11.4067C4.81333 11.5533 5.39334 11.64 6.00667 11.64C9.38667 11.64 12.0067 9.16666 12.0067 5.82C12.0067 2.47333 9.38667 0 6.00667 0H6ZM9.61999 4.44667L7.84666 7.29333C7.57999 7.72 7.02 7.85333 6.6 7.58C6.58 7.56666 6.56 7.55333 6.54 7.54L5.13334 6.46666C5.00667 6.36666 4.82666 6.36666 4.69999 6.46666L2.80001 7.93333C2.54667 8.12666 2.21332 7.82 2.38666 7.54667L4.15999 4.69333C4.42666 4.26666 4.98666 4.13333 5.40666 4.40667C5.42666 4.42 5.44667 4.43333 5.46667 4.44667L6.87333 5.52C7 5.62 7.17999 5.62 7.30666 5.52L9.20666 4.05333C9.46 3.86 9.79333 4.16667 9.61999 4.44V4.44667Z" fill="black"/>
</svg>
