<svg width="22" height="21" viewBox="0 0 22 21" fill="none" xmlns="http://www.w3.org/2000/svg">
<path d="M12.1222 1.36164L14.3879 5.93146C14.5582 6.27563 14.8872 6.51366 15.2687 6.56849L20.4988 7.32443C21.4578 7.46326 21.8405 8.63928 21.1464 9.31362L17.3652 12.9828C17.0887 13.2511 16.9627 13.6373 17.028 14.0165L17.8925 19.0378C18.0675 20.0563 16.9977 20.8333 16.0807 20.3538L11.5447 17.9797C11.2041 17.8012 10.798 17.8012 10.4585 17.9797L5.92602 20.3514C5.00785 20.8321 3.93448 20.0539 4.11065 19.0331L4.97525 14.0165C5.04059 13.6373 4.91451 13.2511 4.63801 12.9828L0.856885 9.31362C0.161552 8.63928 0.544138 7.46326 1.50431 7.32443L6.73451 6.56849C7.11484 6.51366 7.44385 6.27563 7.61535 5.93146L9.88103 1.36164C10.3372 0.434141 11.6626 0.434141 12.1222 1.36164Z" fill="url(#paint0_linear_506_1111)"/>
<defs>
<linearGradient id="paint0_linear_506_1111" x1="1.0002" y1="1.59785" x2="24.2842" y2="6.7678" gradientUnits="userSpaceOnUse">
<stop stop-color="#FCC224"/>
<stop offset="1" stop-color="#FF8A7A"/>
</linearGradient>
</defs>
</svg>
