<svg width="21" height="19" viewBox="0 0 21 19" fill="none" xmlns="http://www.w3.org/2000/svg">
<path d="M16.5 0.75H4.5C2.082 0.75 0.75 2.082 0.75 4.5V14.5C0.75 16.918 2.082 18.25 4.5 18.25H16.5C18.918 18.25 20.25 16.918 20.25 14.5V4.5C20.25 2.082 18.918 0.75 16.5 0.75ZM4.5 2.25H16.5C18.077 2.25 18.75 2.923 18.75 4.5V11.75L14.21 7.20996C13.82 6.81996 13.18 6.81996 12.79 7.20996L7.84998 12.1499C7.65998 12.3399 7.34002 12.3399 7.15002 12.1499L6.20996 11.21C5.81996 10.82 5.18004 10.82 4.79004 11.21L2.25 13.75V4.5C2.25 2.923 2.923 2.25 4.5 2.25ZM5.25 6.5C5.25 5.81 5.80404 5.25 6.49304 5.25H6.50305C7.19205 5.25 7.75098 5.81 7.75098 6.5C7.75098 7.19 7.19305 7.75 6.50305 7.75C5.81405 7.75 5.25 7.19 5.25 6.5Z" fill="white"/>
</svg>
