<svg width="16" height="16" viewBox="0 0 16 16" fill="none" xmlns="http://www.w3.org/2000/svg">
<path d="M8.00016 0.833344C4.04816 0.833344 0.833496 4.04868 0.833496 8.00001C0.833496 11.9513 4.04816 15.1667 8.00016 15.1667C11.9522 15.1667 15.1668 11.9513 15.1668 8.00001C15.1668 4.04868 11.9522 0.833344 8.00016 0.833344ZM1.8335 8.00001C1.8335 7.28934 1.96015 6.60934 2.18282 5.97334C2.59615 8.98001 5.23349 9.23402 5.34749 9.71335C5.47416 10.2533 5.3475 10.4134 5.39417 11.34C5.44083 12.2667 6.72082 12.28 7.21415 13.0133C7.35949 13.2267 7.44351 13.6833 7.40751 14.1367C4.28418 13.8373 1.8335 11.2 1.8335 8.00001ZM9.6735 13.93C10.1275 12.508 11.4908 12.026 11.6295 11.204C11.7408 10.5447 10.8742 10.2073 10.0962 10.1113C9.32548 10.0227 9.43684 9.21535 8.88883 8.64468C8.34083 8.07402 7.98216 8.10667 7.21216 8.20267C6.43416 8.29133 5.78215 8.23601 5.56681 7.76201C5.35948 7.28801 5.62616 7.06134 5.05949 6.47401C4.58749 5.98468 5.09415 5.54602 5.34615 5.48668C5.74615 5.39068 6.45748 6.09 6.87415 6.00467C8.12948 5.746 6.62549 3.28934 8.51082 2.67134C8.84082 2.56334 9.14948 2.30069 9.30481 1.97535C10.3821 2.20869 11.3515 2.72601 12.1395 3.44201C12.3562 4.05867 12.5068 4.76669 12.3808 5.14202C12.1288 5.92002 11.4962 6.47934 12.1868 7.75268C12.9075 9.08201 13.3521 9.26268 13.6761 8.89735C13.8048 8.75202 13.9722 8.64935 14.1388 8.58735C13.8942 11.1454 12.0808 13.2493 9.6735 13.93Z" fill="black"/>
</svg>
