<svg width="20" height="21" viewBox="0 0 20 21" fill="none" xmlns="http://www.w3.org/2000/svg">
<path d="M19.75 10.5C19.75 12.005 19.5399 13.593 19.1599 15.134C19.1529 15.167 19.154 15.1999 19.146 15.2319C19.128 15.3039 19.104 15.3731 19.085 15.4451C19.057 15.5531 19.0229 15.6569 18.9929 15.7649C18.8989 16.1079 18.8099 16.4529 18.7009 16.7849L18.23 18.3101C17.866 19.4891 16.7741 20.25 15.5991 20.25C15.3331 20.25 15.0641 20.2109 14.7981 20.1299L13.832 19.835C13.386 19.699 13.0181 19.3959 12.7981 18.9819C12.5791 18.5689 12.5329 18.0959 12.6709 17.6489L14.155 12.7949C14.292 12.3469 14.5941 11.98 15.0081 11.761C15.4231 11.542 15.899 11.497 16.342 11.634L17.2839 11.9231C17.6009 12.0201 17.884 12.1759 18.134 12.3669C18.204 11.7369 18.25 11.11 18.25 10.501C18.25 5.95198 14.549 2.25098 10 2.25098C5.451 2.25098 1.75 5.95198 1.75 10.501C1.75 11.11 1.79597 11.736 1.86597 12.366C2.11597 12.175 2.39906 12.0191 2.71606 11.9221L3.65796 11.6331C4.10196 11.4951 4.57794 11.54 4.99194 11.76C5.40494 11.979 5.70797 12.3459 5.84497 12.7939L7.3291 17.6499C7.4671 18.0959 7.4209 18.5699 7.2019 18.9829C6.9819 19.3969 6.61399 19.6989 6.16699 19.8359L5.2019 20.1311C4.9359 20.2131 4.66688 20.251 4.40088 20.251C3.22588 20.251 2.13402 19.49 1.77002 18.311L1.29712 16.7781C1.18912 16.4511 1.09793 16.0999 1.00293 15.7539C0.97493 15.6499 0.941039 15.5511 0.915039 15.4451C0.896039 15.3721 0.872004 15.3059 0.854004 15.2329C0.846004 15.1999 0.847088 15.168 0.840088 15.135C0.460088 13.595 0.25 12.006 0.25 10.501C0.25 5.12498 4.624 0.750977 10 0.750977C15.376 0.750977 19.75 5.124 19.75 10.5Z" fill="url(#paint0_linear_58_126)"/>
<defs>
<linearGradient id="paint0_linear_58_126" x1="0.713125" y1="1.66716" x2="22.4448" y2="6.2244" gradientUnits="userSpaceOnUse">
<stop stop-color="#5C24FC"/>
<stop offset="1" stop-color="#9D7AFF"/>
</linearGradient>
</defs>
</svg>
