<svg width="20" height="19" viewBox="0 0 20 19" fill="none" xmlns="http://www.w3.org/2000/svg">
<path d="M19.75 9V15C19.75 17.418 18.418 18.75 16 18.75H4C1.582 18.75 0.25 17.418 0.25 15V5C0.25 2.582 1.582 1.25 4 1.25H11C11.414 1.25 11.75 1.586 11.75 2C11.75 2.414 11.414 2.75 11 2.75H4C2.423 2.75 1.75 3.423 1.75 5V14.25L4.29004 11.71C4.68004 11.32 5.31996 11.32 5.70996 11.71L6.65002 12.6499C6.84002 12.8399 7.15998 12.8399 7.34998 12.6499L12.29 7.70996C12.68 7.31996 13.32 7.31996 13.71 7.70996L18.25 12.25V9C18.25 8.586 18.586 8.25 19 8.25C19.414 8.25 19.75 8.586 19.75 9ZM5.99304 5.75C5.30404 5.75 4.75 6.31 4.75 7C4.75 7.69 5.31395 8.25 6.00195 8.25C6.69095 8.25 7.25 7.69 7.25 7C7.25 6.31 6.69195 5.75 6.00195 5.75H5.99304ZM15 3.75H16.25V5C16.25 5.414 16.586 5.75 17 5.75C17.414 5.75 17.75 5.414 17.75 5V3.75H19C19.414 3.75 19.75 3.414 19.75 3C19.75 2.586 19.414 2.25 19 2.25H17.75V1C17.75 0.586 17.414 0.25 17 0.25C16.586 0.25 16.25 0.586 16.25 1V2.25H15C14.586 2.25 14.25 2.586 14.25 3C14.25 3.414 14.586 3.75 15 3.75Z" fill="white"/>
</svg>
