<svg width="21" height="21" viewBox="0 0 21 21" fill="none" xmlns="http://www.w3.org/2000/svg">
<path d="M10.5 0.5C4.977 0.5 0.5 4.977 0.5 10.5C0.5 16.023 4.977 20.5 10.5 20.5C16.023 20.5 20.5 16.023 20.5 10.5C20.5 4.977 16.023 0.5 10.5 0.5ZM11.25 15C11.25 15.414 10.914 15.75 10.5 15.75C10.086 15.75 9.75 15.414 9.75 15V10.429C9.75 10.015 10.086 9.67896 10.5 9.67896C10.914 9.67896 11.25 10.015 11.25 10.429V15ZM10.52 8C9.96802 8 9.51489 7.552 9.51489 7C9.51489 6.448 9.95801 6 10.51 6H10.52C11.073 6 11.52 6.448 11.52 7C11.52 7.552 11.072 8 10.52 8Z" fill="url(#paint0_linear_473_589)"/>
<defs>
<linearGradient id="paint0_linear_473_589" x1="0.975" y1="1.43967" x2="23.2639" y2="6.11377" gradientUnits="userSpaceOnUse">
<stop stop-color="#5C24FC"/>
<stop offset="1" stop-color="#9D7AFF"/>
</linearGradient>
</defs>
</svg>
