<svg width="30" height="22" viewBox="0 0 30 22" fill="none" xmlns="http://www.w3.org/2000/svg">
<path d="M15 6.00001C14.0111 6.00001 13.0444 6.29326 12.2222 6.84267C11.3999 7.39207 10.759 8.17297 10.3806 9.0866C10.0022 10.0002 9.90315 11.0056 10.0961 11.9755C10.289 12.9454 10.7652 13.8363 11.4645 14.5355C12.1637 15.2348 13.0546 15.711 14.0246 15.9039C14.9945 16.0969 15.9998 15.9979 16.9134 15.6194C17.8271 15.241 18.6079 14.6001 19.1574 13.7779C19.7068 12.9556 20 11.9889 20 11C20 9.67393 19.4732 8.40216 18.5355 7.46448C17.5979 6.5268 16.3261 6.00001 15 6.00001ZM15 14C14.4067 14 13.8266 13.8241 13.3333 13.4944C12.8399 13.1648 12.4554 12.6962 12.2284 12.1481C12.0013 11.5999 11.9419 10.9967 12.0576 10.4147C12.1734 9.8328 12.4591 9.29825 12.8787 8.87869C13.2982 8.45914 13.8328 8.17341 14.4147 8.05766C14.9967 7.9419 15.5999 8.00131 16.1481 8.22838C16.6962 8.45544 17.1648 8.83996 17.4944 9.3333C17.8241 9.82665 18 10.4067 18 11C18 11.7957 17.6839 12.5587 17.1213 13.1213C16.5587 13.6839 15.7957 14 15 14ZM24.2138 14.8925C23.7841 15.9082 23.1894 16.8459 22.4538 17.6675C22.2756 17.8603 22.0288 17.9753 21.7667 17.9877C21.5045 18.0001 21.248 17.9089 21.0524 17.7339C20.8568 17.5588 20.7379 17.3139 20.7214 17.052C20.7048 16.79 20.7918 16.5321 20.9638 16.3338C22.2768 14.8677 23.0029 12.9688 23.0029 11.0006C23.0029 9.03253 22.2768 7.13359 20.9638 5.66751C20.8737 5.57009 20.804 5.45572 20.7586 5.33108C20.7132 5.20643 20.693 5.074 20.6993 4.94148C20.7055 4.80897 20.7381 4.67903 20.7951 4.55924C20.8521 4.43944 20.9323 4.33218 21.0312 4.2437C21.13 4.15522 21.2455 4.08729 21.3709 4.04387C21.4962 4.00045 21.6289 3.98241 21.7613 3.99079C21.8937 3.99917 22.0231 4.03382 22.142 4.0927C22.2609 4.15158 22.3669 4.23353 22.4538 4.33376C23.7164 5.74669 24.5521 7.48899 24.8637 9.35812C25.1753 11.2272 24.9499 13.1464 24.2138 14.8925ZM7.62501 7.88626C7.03498 9.28298 6.85402 10.8186 7.10321 12.3142C7.35241 13.8098 8.02149 15.2038 9.03251 16.3338C9.20443 16.5321 9.29149 16.79 9.2749 17.052C9.25832 17.3139 9.13942 17.5588 8.94386 17.7339C8.7483 17.9089 8.49176 18.0001 8.22959 17.9877C7.96742 17.9753 7.72064 17.8603 7.54251 17.6675C5.90074 15.835 4.99289 13.4611 4.99289 11.0006C4.99289 8.54022 5.90074 6.16632 7.54251 4.33376C7.71937 4.13568 7.96768 4.01597 8.23281 4.00097C8.49794 3.98596 8.75817 4.0769 8.95626 4.25376C9.15434 4.43063 9.27405 4.67894 9.28905 4.94407C9.30406 5.2092 9.21312 5.46943 9.03626 5.66751C8.44626 6.32387 7.96935 7.07366 7.62501 7.88626ZM30 11C30.0061 14.9272 28.4664 18.699 25.7138 21.5C25.6227 21.5974 25.5131 21.6756 25.3914 21.7299C25.2696 21.7843 25.1383 21.8138 25.005 21.8167C24.8717 21.8196 24.7392 21.7958 24.6152 21.7467C24.4913 21.6976 24.3784 21.6242 24.2832 21.5309C24.188 21.4375 24.1125 21.3261 24.061 21.2031C24.0095 21.0801 23.9831 20.9481 23.9834 20.8148C23.9837 20.6815 24.0106 20.5496 24.0626 20.4268C24.1147 20.3041 24.1907 20.193 24.2863 20.1C26.6697 17.6717 28.005 14.4051 28.005 11.0025C28.005 7.59997 26.6697 4.33331 24.2863 1.90501C24.0999 1.71572 23.9965 1.46016 23.9986 1.19456C24.0007 0.928962 24.1082 0.675079 24.2975 0.488765C24.4868 0.30245 24.7424 0.198965 25.008 0.201075C25.2736 0.203184 25.5274 0.310716 25.7138 0.500015C28.4664 3.30105 30.0061 7.07285 30 11ZM5.71376 20.0975C5.80585 20.1912 5.87857 20.3022 5.92778 20.424C5.97699 20.5459 6.00172 20.6762 6.00056 20.8076C5.9994 20.939 5.97237 21.0689 5.92102 21.1898C5.86966 21.3108 5.79499 21.4204 5.70126 21.5125C5.60753 21.6046 5.49657 21.6773 5.37474 21.7265C5.2529 21.7758 5.12256 21.8005 4.99117 21.7993C4.85977 21.7982 4.72989 21.7711 4.60894 21.7198C4.488 21.6684 4.37835 21.5937 4.28626 21.5C1.53399 18.6981 -0.00811768 14.9276 -0.00811768 11C-0.00811768 7.07246 1.53399 3.30192 4.28626 0.500015C4.37732 0.40265 4.48694 0.324478 4.60866 0.270094C4.73037 0.21571 4.86174 0.186213 4.99502 0.183338C5.12831 0.180463 5.26082 0.204267 5.38477 0.253351C5.50872 0.302435 5.62161 0.375808 5.71679 0.469155C5.81197 0.562502 5.88752 0.673938 5.93901 0.79691C5.99049 0.919882 6.01687 1.05191 6.01659 1.18522C6.0163 1.31854 5.98937 1.45045 5.93736 1.5732C5.88536 1.69596 5.80933 1.80707 5.71376 1.90001C3.33034 4.32831 1.99506 7.59497 1.99506 10.9975C1.99506 14.4001 3.33034 17.6667 5.71376 20.095V20.0975Z" fill="white"/>
</svg>
