<svg width="15" height="16" viewBox="0 0 15 16" fill="none" xmlns="http://www.w3.org/2000/svg">
<path d="M14.7917 6.65872L13.7083 7.76773C13.7083 7.93834 13.75 8.10896 13.75 8.32223C13.75 11.8625 10.9583 14.7204 7.5 14.7204C4.04167 14.7204 1.25 11.8625 1.25 8.32223C1.25 4.78193 4.04167 1.92409 7.5 1.92409C9 1.92409 10.25 2.30798 11.25 3.16107L9.5 3.41699C9.16667 3.45965 8.91667 3.80088 8.95833 4.14211C9 4.44069 9.25 4.69662 9.58333 4.69662C9.625 4.69662 9.625 4.69662 9.66667 4.69662L12.5833 4.27008C12.9167 4.22742 13.1667 3.88619 13.125 3.54496L12.7083 0.559156C12.6667 0.217922 12.3333 -0.0380033 12 0.00465096C11.6667 0.0473052 11.4167 0.388539 11.4583 0.729774L11.625 1.96675C10.5 1.11366 9.125 0.644465 7.5 0.644465C3.375 0.644465 0 4.09946 0 8.32223C0 12.545 3.375 16 7.5 16C11.625 16 15 12.545 15 8.32223C14.9583 7.76773 14.875 7.21322 14.7917 6.65872Z" fill="#3D2278"/>
</svg>
