<svg width="18" height="24" viewBox="0 0 18 24" fill="none" xmlns="http://www.w3.org/2000/svg">
<path d="M8.99772 23.4996C8.95858 23.4978 8.92041 23.4899 8.88523 23.4765C8.86199 23.4673 8.84959 23.4621 8.84363 23.4595C8.83633 23.4529 8.81814 23.4352 8.78488 23.3963C8.66844 23.26 8.47415 22.9938 8.04574 22.405C7.29005 21.3615 6.70677 20.5648 6.17539 19.8399L6.04816 19.6663C5.56645 19.0091 5.12093 18.4013 4.61679 17.7052L4.61651 17.7048C3.68923 16.427 2.50484 14.7959 2.16709 14.3447L2.1671 14.3447L2.16528 14.3423C0.306997 11.8904 0.0734738 8.66135 1.1189 5.93208C2.16257 3.20741 4.45758 1.03703 7.60446 0.647925L7.62192 0.645766L7.63918 0.642387C10.6 0.0626667 13.382 1.30818 15.2415 3.43701C17.1038 5.56917 17.9957 8.53784 17.2192 11.332L17.2122 11.357L17.2079 11.3826C17.1242 11.8781 16.8886 12.4691 16.5337 13.1311C16.1814 13.7882 15.7266 14.4881 15.2282 15.1977C14.7341 15.901 14.2039 16.6045 13.6961 17.2782L13.6837 17.2946C13.1766 17.9675 12.6894 18.6142 12.296 19.1873L9.41732 23.1624H9.41689L9.26713 23.3684C9.20779 23.45 9.11157 23.4996 9.00694 23.4996H8.99772ZM5.09948 17.3005C5.40191 17.7172 5.69031 18.1145 5.937 18.4539L5.89661 18.4837L6.23591 18.891C6.45587 19.1551 7.13998 20.0918 8.60157 22.1012L9.0075 22.6593L9.41136 22.0997C9.59383 21.8469 9.79568 21.5666 10.0103 21.2687C10.9872 19.9122 12.2284 18.1889 13.1093 17.015C13.1525 16.9578 13.1961 16.9 13.2402 16.8416C13.8903 15.981 14.6389 14.99 15.2609 14.0378C15.9024 13.0556 16.4654 12.0338 16.5997 11.2011C17.3371 8.60015 16.49 5.84362 14.8023 3.88391C13.109 1.91778 10.5166 0.694345 7.71631 1.25379C4.75065 1.58596 2.63622 3.68124 1.69336 6.20056C0.750633 8.71953 0.947071 11.7416 2.68682 13.9912C3.05248 14.4805 4.1458 15.9867 5.09948 17.3005ZM8.99942 12.6314L8.98106 12.631C3.9784 12.5427 3.98101 5.32176 8.97181 5.22758C10.2582 5.25395 11.1819 5.73274 11.7871 6.40689C12.4006 7.09039 12.7133 8.00515 12.7098 8.9335C12.7063 9.86192 12.3866 10.7771 11.7704 11.4601C11.1668 12.1291 10.2551 12.6024 8.99942 12.6314ZM8.98702 12.0336L8.98742 12.0336L5.82611 8.93219C5.82611 8.93221 5.82611 8.93223 5.82611 8.93225C5.83468 10.6582 7.25504 12.0421 8.98702 12.0336Z" fill="#0F0A19" stroke="#0F0A19"/>
</svg>
