<svg width="19" height="19" viewBox="0 0 19 19" fill="none" xmlns="http://www.w3.org/2000/svg">
<path d="M5 10.25H12V14.5V15.5C12 17.5 11 18.5 9 18.5H3C1 18.5 0 17.5 0 15.5V3.5C0 1.5 1 0.5 3 0.5H9C11 0.5 12 1.5 12 3.5V4.5V8.75H5C4.586 8.75 4.25 9.086 4.25 9.5C4.25 9.914 4.586 10.25 5 10.25ZM18.692 9.21301C18.654 9.12101 18.599 9.03799 18.53 8.96899L15.53 5.96899C15.237 5.67599 14.762 5.67599 14.469 5.96899C14.176 6.26199 14.176 6.737 14.469 7.03L16.189 8.75H12V10.25H16.189L14.469 11.97C14.176 12.263 14.176 12.738 14.469 13.031C14.615 13.177 14.807 13.251 14.999 13.251C15.191 13.251 15.383 13.178 15.529 13.031L18.529 10.031C18.598 9.96201 18.653 9.87899 18.691 9.78699C18.768 9.60299 18.768 9.39701 18.692 9.21301Z" fill="white"/>
</svg>
