<svg width="29" height="37" viewBox="0 0 29 37" fill="none" xmlns="http://www.w3.org/2000/svg">
<path fill-rule="evenodd" clip-rule="evenodd" d="M17.9958 4.90769C19.472 4.90769 20.606 3.77528 20.606 2.45385C20.606 1.13241 19.472 0 17.9958 0C16.5195 0 15.3854 1.13241 15.3854 2.45385C15.3854 3.77528 16.5195 4.90769 17.9958 4.90769ZM16.1852 6.62711C15.9186 6.51396 15.6272 6.47162 15.3393 6.5042L7.44977 7.39727C6.70314 7.48179 6.10325 8.05146 5.98029 8.79272L4.79064 15.9645C4.6387 16.8805 5.25809 17.7463 6.1741 17.8982C7.09011 18.0502 7.95585 17.4308 8.1078 16.5148L9.08966 10.5956L11.8442 10.2838L9.37198 18.5327L9.38844 18.5377L6.67932 26.9183L0.52965 33.3499C-0.199547 34.1125 -0.172444 35.3219 0.590185 36.0511C1.35281 36.7803 2.56218 36.7532 3.29137 35.9906L9.74347 29.2427C9.94251 29.0345 10.0919 28.784 10.1805 28.51L12.6206 20.9617L13.4024 21.118L18.2154 25.0638L12.0471 29.0171C11.1587 29.5864 10.9001 30.7681 11.4694 31.6565C12.0388 32.5448 13.2205 32.8034 14.1088 32.2341L22.4911 26.862C23.006 26.532 23.3318 25.9755 23.3675 25.365C23.4032 24.7544 23.1444 24.1637 22.6715 23.776L16.4976 18.7145L17.7932 14.3913L18.2328 15.3843L18.8772 16.84L19.0383 17.2039L19.0785 17.2949L19.0886 17.3177L19.0911 17.3233L19.0917 17.3248L19.0919 17.3251L19.0919 17.3252L20.6293 16.6447L19.092 17.3252C19.2785 17.7466 19.6297 18.0729 20.0637 18.228C20.4976 18.383 20.9761 18.3531 21.3874 18.1454L27.7662 14.923C28.595 14.5043 28.9275 13.4931 28.5088 12.6643C28.0901 11.8355 27.0788 11.503 26.2501 11.9217L21.4505 14.3463L21.3075 14.0233L18.73 8.20038C18.5572 7.80997 18.2423 7.49993 17.8492 7.33318L17.1926 8.88091L17.8492 7.33318L17.8492 7.33317L17.8491 7.33314L17.8488 7.33301L17.8476 7.3325L17.8427 7.33043L17.8232 7.32216L17.7452 7.28907L17.4332 7.15668L16.1852 6.62711Z" fill="url(#paint0_linear_3_6865)"/>
<defs>
<linearGradient id="paint0_linear_3_6865" x1="0.681382" y1="1.7187" x2="33.1814" y2="7.06394" gradientUnits="userSpaceOnUse">
<stop stop-color="#5C24FC"/>
<stop offset="1" stop-color="#9D7AFF"/>
</linearGradient>
</defs>
</svg>
