<svg width="32" height="32" viewBox="0 0 32 32" fill="none" xmlns="http://www.w3.org/2000/svg">
<rect width="31.9996" height="32" rx="15.9998" transform="matrix(-1 0 0 1 32 0)" fill="#3D2278"/>
<path d="M16.0055 7.19922C15.139 7.19922 14.3079 7.55917 13.6952 8.1999C13.0825 8.84062 12.7383 9.70962 12.7383 10.6157V15.6269C12.7383 16.533 13.0825 17.402 13.6952 18.0428C14.3079 18.6835 15.139 19.0434 16.0055 19.0434C16.872 19.0434 17.703 18.6835 18.3157 18.0428C18.9285 17.402 19.2727 16.533 19.2727 15.6269V10.6157C19.2727 9.70962 18.9285 8.84062 18.3157 8.1999C17.703 7.55917 16.872 7.19922 16.0055 7.19922ZM18.1836 15.6269C18.1836 16.231 17.9541 16.8103 17.5457 17.2375C17.1372 17.6646 16.5832 17.9046 16.0055 17.9046C15.4278 17.9046 14.8738 17.6646 14.4653 17.2375C14.0568 16.8103 13.8273 16.231 13.8273 15.6269V10.6157C13.8273 10.0117 14.0568 9.43233 14.4653 9.00518C14.8738 8.57803 15.4278 8.33806 16.0055 8.33806C16.5832 8.33806 17.1372 8.57803 17.5457 9.00518C17.9541 9.43233 18.1836 10.0117 18.1836 10.6157V15.6269Z" fill="white"/>
<path d="M15.4576 21.291V23.6581H13.2795C13.1374 23.6617 13.0023 23.7233 12.903 23.8297C12.8038 23.9361 12.7482 24.0789 12.7482 24.2275C12.7482 24.3761 12.8038 24.5189 12.903 24.6253C13.0023 24.7317 13.1374 24.7933 13.2795 24.7969H18.7252C18.8673 24.7933 19.0024 24.7317 19.1017 24.6253C19.2009 24.5189 19.2565 24.3761 19.2565 24.2275C19.2565 24.0789 19.2009 23.9361 19.1017 23.8297C19.0024 23.7233 18.8673 23.6617 18.7252 23.6581H16.547V21.291C19.3803 21.0037 21.6022 18.4998 21.6022 15.4631C21.604 15.3871 21.5912 15.3116 21.5646 15.2409C21.5381 15.1701 21.4982 15.1057 21.4475 15.0513C21.3968 14.9969 21.3361 14.9537 21.2692 14.9242C21.2022 14.8947 21.1303 14.8795 21.0576 14.8795C20.985 14.8795 20.9131 14.8947 20.8461 14.9242C20.7792 14.9537 20.7185 14.9969 20.6678 15.0513C20.617 15.1057 20.5772 15.1701 20.5507 15.2409C20.5241 15.3116 20.5113 15.3871 20.5131 15.4631C20.5131 18.0639 18.4895 20.18 16.0023 20.18C13.5152 20.18 11.4916 18.0643 11.4916 15.4634C11.4934 15.3875 11.4806 15.3119 11.454 15.2412C11.4275 15.1705 11.3876 15.106 11.3369 15.0517C11.2862 14.9973 11.2255 14.9541 11.1586 14.9246C11.0916 14.8951 11.0197 14.8799 10.947 14.8799C10.8744 14.8799 10.8025 14.8951 10.7355 14.9246C10.6686 14.9541 10.6079 14.9973 10.5572 15.0517C10.5064 15.106 10.4666 15.1705 10.4401 15.2412C10.4135 15.3119 10.4007 15.3875 10.4025 15.4634C10.4025 18.5001 12.6247 21.004 15.4576 21.291Z" fill="white"/>
</svg>
