<svg width="21" height="19" viewBox="0 0 21 19" fill="none" xmlns="http://www.w3.org/2000/svg">
<path d="M20.693 16.213C20.809 16.493 20.745 16.816 20.53 17.03L19.53 18.03C19.384 18.176 19.192 18.25 19 18.25C18.808 18.25 18.616 18.177 18.47 18.03C18.259 17.819 18.2 17.514 18.293 17.25H15.5C14.259 17.25 13.25 16.241 13.25 15V14.5C13.25 14.086 13.586 13.75 14 13.75C14.414 13.75 14.75 14.086 14.75 14.5V15C14.75 15.414 15.086 15.75 15.5 15.75H20C20.303 15.75 20.577 15.933 20.693 16.213ZM18.5 11.25H15.708C15.801 10.986 15.742 10.681 15.531 10.47C15.238 10.177 14.763 10.177 14.47 10.47L13.47 11.47C13.256 11.684 13.191 12.007 13.307 12.287C13.423 12.567 13.697 12.75 14 12.75H18.5C18.914 12.75 19.25 13.086 19.25 13.5V14C19.25 14.414 19.586 14.75 20 14.75C20.414 14.75 20.75 14.414 20.75 14V13.5C20.75 12.259 19.741 11.25 18.5 11.25ZM11 13.5C11 13.69 11.01 13.88 11.03 14.07C11.04 14.11 11.05 14.15 11.05 14.19C11.05 14.36 10.91 14.5 10.74 14.5H3C1 14.5 0 13.5 0 11.5V3.5C0 1.5 1 0.5 3 0.5H15C17 0.5 18 1.5 18 3.5V8.47998C18 8.68998 17.8 8.82001 17.6 8.76001C17.1 8.59001 16.56 8.5 16 8.5C13.24 8.5 11 10.74 11 13.5ZM4 7.49902C4 6.94702 3.552 6.49902 3 6.49902C2.448 6.49902 2 6.94702 2 7.49902C2 8.05102 2.448 8.49902 3 8.49902C3.552 8.49902 4 8.05202 4 7.49902ZM12 7.5C12 5.843 10.657 4.5 9 4.5C7.343 4.5 6 5.843 6 7.5C6 9.157 7.343 10.5 9 10.5C10.657 10.5 12 9.157 12 7.5Z" fill="white"/>
</svg>
