<svg width="39" height="44" viewBox="0 0 39 44" fill="none" xmlns="http://www.w3.org/2000/svg">
<path d="M38.875 5.21487V29.8951C38.875 29.9019 38.8706 29.9065 38.8706 29.9132C38.8504 33.619 35.833 36.627 32.125 36.627C28.4035 36.627 25.375 33.5985 25.375 29.877C25.375 26.1555 28.4035 23.127 32.125 23.127C33.8597 23.127 35.428 23.8043 36.625 24.8821V13.3145L14.125 19.6147V36.6248C14.125 40.3463 11.0965 43.3748 7.375 43.3748C3.6535 43.3748 0.625 40.3463 0.625 36.6248C0.625 32.9033 3.6535 29.8748 7.375 29.8748C9.10975 29.8748 10.678 30.5521 11.875 31.6299V11.1052C11.875 8.32194 13.2947 6.45477 15.9789 5.70102L33.1599 0.88791C34.8519 0.41316 36.292 0.575072 37.327 1.36032C38.3553 2.14107 38.875 3.43737 38.875 5.21487Z" fill="url(#paint0_linear_595_361)"/>
<defs>
<linearGradient id="paint0_linear_595_361" x1="1.53344" y1="2.6304" x2="44.5223" y2="10.6959" gradientUnits="userSpaceOnUse">
<stop stop-color="#5C24FC"/>
<stop offset="1" stop-color="#9D7AFF"/>
</linearGradient>
</defs>
</svg>
