<svg width="19" height="20" viewBox="0 0 19 20" fill="none" xmlns="http://www.w3.org/2000/svg">
<path d="M8.30573 20C6.32773 20 4.48672 19.245 3.11872 17.873C0.235717 14.982 0.278908 10.235 3.21491 7.29004L8.94294 1.54602C9.93794 0.54802 11.2598 -0.000976562 12.6678 -0.000976562C14.0758 -0.000976562 15.3969 0.54802 16.3929 1.54602C18.4449 3.60402 18.4449 6.95103 16.3929 9.00803L10.6368 14.779C9.45278 15.965 7.38792 15.967 6.20392 14.779C4.98392 13.555 4.98392 11.565 6.20392 10.342L11.2598 5.27203C11.6508 4.88103 12.2829 4.88002 12.6739 5.27002C13.0659 5.66002 13.0658 6.29302 12.6758 6.68402L7.61994 11.754C7.17694 12.199 7.17694 12.922 7.61994 13.367C8.04894 13.796 8.79277 13.795 9.22077 13.367L14.9769 7.59604C16.2519 6.31704 16.2519 4.23704 14.9769 2.95804C13.7429 1.72104 11.5939 1.72104 10.3599 2.95804L4.6319 8.70203C2.5089 10.831 2.46571 14.384 4.53571 16.46C5.52471 17.452 6.86471 17.999 8.30671 17.999C9.78671 17.999 11.2309 17.404 12.2659 16.365L17.2928 11.323C17.6838 10.932 18.3159 10.931 18.7069 11.321C19.0989 11.711 19.0988 12.344 18.7088 12.735L13.6817 17.777C12.2717 19.19 10.3127 20 8.30573 20Z" fill="#25314C" fill-opacity="0.36"/>
</svg>
