<svg width="15" height="19" viewBox="0 0 15 19" fill="none" xmlns="http://www.w3.org/2000/svg">
<path d="M0.5 17V2C0.5 1 1 0.5 2 0.5H4C5 0.5 5.5 1 5.5 2V17C5.5 18 5 18.5 4 18.5H2C1 18.5 0.5 18 0.5 17ZM11 18.5H13C14 18.5 14.5 18 14.5 17V2C14.5 1 14 0.5 13 0.5H11C10 0.5 9.5 1 9.5 2V17C9.5 18 10 18.5 11 18.5Z" fill="url(#paint0_linear_531_816)"/>
<defs>
<linearGradient id="paint0_linear_531_816" x1="0.8325" y1="1.34571" x2="16.6987" y2="3.93356" gradientUnits="userSpaceOnUse">
<stop stop-color="#FCC224"/>
<stop offset="1" stop-color="#FF8A7A"/>
</linearGradient>
</defs>
</svg>
