<svg width="18" height="19" viewBox="0 0 18 19" fill="none" xmlns="http://www.w3.org/2000/svg">
<path d="M14.6249 11.6741L17.268 13.2501C17.814 13.5761 18.0959 14.2101 17.9709 14.8341C17.4599 17.3931 14.89 19.0331 12.373 18.3421C6.43395 16.7121 1.79484 12.0871 0.158842 6.13512C-0.533158 3.61712 1.10495 1.0451 3.66495 0.5331L3.68179 0.530109C4.30679 0.405109 4.94395 0.68811 5.26895 1.23711L6.83194 3.87612C7.38794 4.81412 7.11179 6.0241 6.20279 6.6281L4.5419 7.73311C5.7139 10.5401 7.95384 12.7891 10.7528 13.9591L11.8678 12.2941C12.4768 11.3871 13.6869 11.1151 14.6249 11.6741ZM14.7499 7.50011C14.7499 5.43211 13.0669 3.75011 10.9999 3.75011C10.5859 3.75011 10.2499 4.08611 10.2499 4.50011C10.2499 4.91411 10.5859 5.25011 10.9999 5.25011C12.2399 5.25011 13.2499 6.25911 13.2499 7.50011C13.2499 7.91411 13.5859 8.25011 13.9999 8.25011C14.4139 8.25011 14.7499 7.91411 14.7499 7.50011ZM16.9999 8.25011C16.5859 8.25011 16.2499 7.91411 16.2499 7.50011C16.2499 4.60511 13.8949 2.25011 10.9999 2.25011C10.5859 2.25011 10.2499 1.91411 10.2499 1.50011C10.2499 1.08611 10.5859 0.75011 10.9999 0.75011C14.7219 0.75011 17.7499 3.77811 17.7499 7.50011C17.7499 7.91411 17.4139 8.25011 16.9999 8.25011Z" fill="url(#paint0_linear_58_315)"/>
<defs>
<linearGradient id="paint0_linear_58_315" x1="0.427266" y1="1.34655" x2="20.4877" y2="5.55347" gradientUnits="userSpaceOnUse">
<stop stop-color="#5C24FC"/>
<stop offset="1" stop-color="#9D7AFF"/>
</linearGradient>
</defs>
</svg>
