<svg width="20" height="18" viewBox="0 0 20 18" fill="none" xmlns="http://www.w3.org/2000/svg">
<path d="M19.2428 16.955C18.9278 17.404 18.3449 17.582 17.8139 17.447L15.0739 16.755C14.1069 16.511 13.501 15.55 13.695 14.57L14.051 12.769C11.478 11.714 8.56794 11.719 5.98894 12.779L6.34905 14.566C6.54705 15.548 5.94205 16.513 4.97405 16.761L2.24993 17.458C1.68293 17.603 1.08687 17.375 0.762867 16.888L0.753834 16.875C-0.704166 14.699 0.025043 11.739 2.31804 10.479C7.19704 7.799 13.1028 7.84499 17.9408 10.597C20.0468 11.795 20.6388 14.97 19.2428 16.955ZM15.53 0.970001C15.237 0.677001 14.7619 0.677001 14.4689 0.970001L10.883 4.556C10.395 5.043 9.60392 5.043 9.11492 4.556L6.80901 2.25H7.99993C8.41393 2.25 8.74993 1.914 8.74993 1.5C8.74993 1.086 8.41393 0.75 7.99993 0.75H4.99993C4.90193 0.75 4.80482 0.770014 4.71282 0.808014C4.52982 0.884014 4.38281 1.02999 4.30681 1.21399C4.26881 1.30599 4.24895 1.40301 4.24895 1.50101V4.50101C4.24895 4.91501 4.58495 5.25101 4.99895 5.25101C5.41295 5.25101 5.74895 4.91501 5.74895 4.50101V3.31201L8.05486 5.61801C8.59086 6.15401 9.29495 6.422 9.99895 6.422C10.703 6.422 11.407 6.15401 11.943 5.61801L15.529 2.03201C15.823 1.73801 15.823 1.262 15.53 0.970001Z" fill="white"/>
</svg>
