<svg width="18" height="19" viewBox="0 0 18 19" fill="none" xmlns="http://www.w3.org/2000/svg">
<path d="M14.6252 11.6742L17.2682 13.2502C17.8142 13.5762 18.0961 14.2102 17.9711 14.8342C17.4601 17.3932 14.8902 19.0332 12.3732 18.3422C6.4342 16.7122 1.79509 12.0872 0.159086 6.13524C-0.532914 3.61724 1.10519 1.04522 3.66519 0.533222L3.68204 0.530231C4.30704 0.405231 4.94419 0.688232 5.26919 1.23723L6.83218 3.87624C7.38818 4.81424 7.11203 6.02422 6.20303 6.62822L4.54214 7.73323C5.71414 10.5402 7.95408 12.7892 10.7531 13.9592L11.8681 12.2942C12.4771 11.3872 13.6872 11.1152 14.6252 11.6742ZM16.0612 3.50023L17.5312 2.03023C17.8242 1.73723 17.8242 1.26223 17.5312 0.969226C17.2382 0.676226 16.7631 0.676226 16.4701 0.969226L15.0002 2.43923L13.5302 0.969226C13.2372 0.676226 12.7621 0.676226 12.4691 0.969226C12.1761 1.26223 12.1761 1.73723 12.4691 2.03023L13.9391 3.50023L12.4691 4.97023C12.1761 5.26323 12.1761 5.73824 12.4691 6.03124C12.6151 6.17724 12.8072 6.25124 12.9992 6.25124C13.1912 6.25124 13.3832 6.17824 13.5292 6.03124L14.9992 4.56124L16.4691 6.03124C16.6151 6.17724 16.8072 6.25124 16.9992 6.25124C17.1912 6.25124 17.3832 6.17824 17.5292 6.03124C17.8222 5.73824 17.8222 5.26323 17.5292 4.97023L16.0612 3.50023Z" fill="white"/>
</svg>
