<svg width="12" height="12" viewBox="0 0 12 12" fill="none" xmlns="http://www.w3.org/2000/svg">
<path d="M9.7501 7.44933L11.5121 8.49999C11.8761 8.71733 12.0641 9.14 11.9807 9.556C11.6401 11.262 9.9268 12.3553 8.2488 11.8947C4.28946 10.808 1.19672 7.72467 0.106057 3.75667C-0.355276 2.078 0.736793 0.363318 2.44346 0.021985L2.45469 0.0199912C2.87136 -0.0633421 3.29613 0.125325 3.5128 0.491325L4.55479 2.25066C4.92545 2.876 4.74135 3.68265 4.13535 4.08532L3.0281 4.82199C3.80943 6.69333 5.30272 8.19267 7.16872 8.97267L7.91205 7.86266C8.31805 7.258 9.12477 7.07667 9.7501 7.44933ZM9.83343 4.66666C9.83343 3.28799 8.71143 2.16666 7.33343 2.16666C7.05743 2.16666 6.83343 2.39066 6.83343 2.66666C6.83343 2.94266 7.05743 3.16666 7.33343 3.16666C8.1601 3.16666 8.83343 3.83933 8.83343 4.66666C8.83343 4.94266 9.05743 5.16666 9.33343 5.16666C9.60943 5.16666 9.83343 4.94266 9.83343 4.66666ZM11.3334 5.16666C11.0574 5.16666 10.8334 4.94266 10.8334 4.66666C10.8334 2.73666 9.26343 1.16666 7.33343 1.16666C7.05743 1.16666 6.83343 0.942659 6.83343 0.666659C6.83343 0.390659 7.05743 0.166659 7.33343 0.166659C9.81477 0.166659 11.8334 2.18533 11.8334 4.66666C11.8334 4.94266 11.6094 5.16666 11.3334 5.16666Z" fill="black"/>
</svg>
