<svg width="18" height="19" viewBox="0 0 18 19" fill="none" xmlns="http://www.w3.org/2000/svg">
<path d="M14.6252 11.6742L17.2682 13.2502C17.8142 13.5762 18.0961 14.2102 17.9711 14.8342C17.4601 17.3932 14.8902 19.0332 12.3732 18.3422C6.4342 16.7122 1.79509 12.0872 0.159086 6.13524C-0.532914 3.61724 1.10519 1.04522 3.66519 0.533222L3.68204 0.530231C4.30704 0.405231 4.94419 0.688232 5.26919 1.23723L6.83218 3.87624C7.38818 4.81424 7.11203 6.02422 6.20303 6.62822L4.54214 7.73323C5.71414 10.5402 7.95408 12.7892 10.7531 13.9592L11.8681 12.2942C12.4771 11.3872 13.6872 11.1152 14.6252 11.6742ZM17.692 1.21324C17.616 1.03024 17.47 0.884239 17.286 0.807239C17.194 0.769239 17.0972 0.749225 16.9992 0.749225H13.6662C13.2522 0.749225 12.9162 1.08523 12.9162 1.49923C12.9162 1.91323 13.2522 2.24923 13.6662 2.24923H15.1881L11.4682 5.96923C11.1752 6.26223 11.1752 6.73723 11.4682 7.03023C11.6142 7.17623 11.8062 7.25023 11.9982 7.25023C12.1902 7.25023 12.3822 7.17723 12.5282 7.03023L16.2482 3.31023V4.83324C16.2482 5.24724 16.5842 5.58324 16.9982 5.58324C17.4122 5.58324 17.7482 5.24724 17.7482 4.83324V1.50023C17.7502 1.40223 17.73 1.30524 17.692 1.21324Z" fill="white"/>
</svg>
