<svg width="24" height="26" viewBox="0 0 24 26" fill="none" xmlns="http://www.w3.org/2000/svg">
<path d="M21.8475 15.5156V14.4934C21.8475 14.1546 21.7052 13.8455 21.4757 13.6216C21.2462 13.3976 20.9293 13.2588 20.5821 13.2588H18.1808V17.5714H20.5821C20.9293 17.5714 21.2462 17.4327 21.4757 17.2087C21.7052 16.9847 21.8475 16.6766 21.8475 16.3378V15.5156ZM15.036 25H10.7945C10.1314 25 9.53008 24.7359 9.09457 24.3109C8.65806 23.885 8.38832 23.2984 8.38832 22.6524C8.38832 22.0054 8.65904 21.4187 9.09457 20.9938C9.5301 20.5679 10.1324 20.3047 10.7945 20.3047H13.2056C13.8687 20.3047 14.47 20.5689 14.9055 20.9938C15.342 21.4187 15.6117 22.0063 15.6117 22.6524V23.8755H17.8512C18.9498 23.8755 19.9483 23.4362 20.6722 22.7299C21.3961 22.0226 21.8463 21.0493 21.8463 19.9775V18.3467C21.4775 18.5687 21.0439 18.697 20.5809 18.697H17.604C17.2852 18.697 17.0272 18.4453 17.0272 18.1342V12.6973C17.0272 12.3862 17.2852 12.1345 17.604 12.1345H20.5809C21.0439 12.1345 21.4785 12.2628 21.8463 12.4848V11.7326C21.8463 9.09117 20.7379 6.68889 18.9535 4.94812C17.1682 3.20723 14.7072 2.12565 11.9999 2.12565C9.29268 2.12565 6.83051 3.20713 5.04636 4.94812C3.26207 6.68996 2.15354 9.09215 2.15354 11.7326V12.4848C2.52237 12.2628 2.95592 12.1345 3.41892 12.1345H6.39586C6.71465 12.1345 6.97264 12.3862 6.97264 12.6973V18.1342C6.97264 18.4443 6.71468 18.697 6.39586 18.697H3.41892C2.75387 18.697 2.14864 18.4319 1.71017 18.0041C1.27268 17.5772 1 16.9867 1 16.3369V11.7325C1 8.77991 2.23791 6.09734 4.23107 4.15249C6.22423 2.20763 8.97484 1 12 1C15.0262 1 17.7756 2.2078 19.7689 4.15249C21.7623 6.09717 23 8.78089 23 11.7325V19.9764C23 21.3584 22.4203 22.6142 21.4884 23.5241C20.5556 24.4352 19.2686 24.9989 17.8523 24.9989H15.0351L15.036 25ZM10.7945 23.8745H14.4592V22.6514C14.4592 22.3154 14.318 22.0101 14.0904 21.7881C13.8628 21.5661 13.5499 21.4283 13.2056 21.4283H10.7945C10.4502 21.4283 10.1373 21.5661 9.90976 21.7881C9.6822 22.0102 9.54093 22.3154 9.54093 22.6514C9.54093 22.9873 9.68218 23.2926 9.90976 23.5146C10.1373 23.7367 10.4502 23.8745 10.7945 23.8745ZM5.81843 13.2589H3.41716C3.06992 13.2589 2.75309 13.3977 2.52355 13.6216C2.29402 13.8456 2.15178 14.1547 2.15178 14.4935V16.3368C2.15178 16.6756 2.29401 16.9847 2.52355 17.2077C2.75308 17.4316 3.06992 17.5704 3.41716 17.5704H5.81843V13.2578V13.2589Z" fill="#0F0A19" stroke="#0F0A19" stroke-width="0.3"/>
</svg>
