<svg width="20" height="21" viewBox="0 0 20 21" fill="none" xmlns="http://www.w3.org/2000/svg">
<path d="M10 0.5C4.48 0.5 0 4.98 0 10.5C0 16.02 4.48 20.5 10 20.5C15.52 20.5 20 16.02 20 10.5C20 4.98 15.52 0.5 10 0.5ZM13.5 11.25H10.75V14C10.75 14.41 10.41 14.75 10 14.75C9.59 14.75 9.25 14.41 9.25 14V11.25H6.5C6.09 11.25 5.75 10.91 5.75 10.5C5.75 10.09 6.09 9.75 6.5 9.75H9.25V7C9.25 6.59 9.59 6.25 10 6.25C10.41 6.25 10.75 6.59 10.75 7V9.75H13.5C13.91 9.75 14.25 10.09 14.25 10.5C14.25 10.91 13.91 11.25 13.5 11.25Z" fill="url(#paint0_linear_58_326)"/>
<defs>
<linearGradient id="paint0_linear_58_326" x1="0.475" y1="1.43967" x2="22.7639" y2="6.11377" gradientUnits="userSpaceOnUse">
<stop stop-color="#5C24FC"/>
<stop offset="1" stop-color="#9D7AFF"/>
</linearGradient>
</defs>
</svg>
