<svg width="19" height="20" viewBox="0 0 19 20" fill="none" xmlns="http://www.w3.org/2000/svg">
<path fill-rule="evenodd" clip-rule="evenodd" d="M18.7199 17.97L14.3499 13.6C15.4999 12.21 16.1899 10.44 16.1899 8.5C16.1899 4.08 12.6099 0.5 8.18994 0.5C3.76994 0.5 0.189941 4.08 0.189941 8.5C0.189941 12.91 3.76994 16.5 8.18994 16.5C10.1299 16.5 11.9099 15.81 13.2899 14.66L17.6599 19.03C17.8099 19.18 17.9999 19.25 18.1899 19.25C18.3799 19.25 18.5699 19.18 18.7199 19.03C19.0099 18.74 19.0099 18.26 18.7199 17.97ZM8.99994 10.75H4.99994C4.58994 10.75 4.24994 10.41 4.24994 10C4.24994 9.59 4.58994 9.25 4.99994 9.25H8.99994C9.40994 9.25 9.74994 9.59 9.74994 10C9.74994 10.41 9.40994 10.75 8.99994 10.75ZM10.9999 7.75H4.99994C4.58994 7.75 4.24994 7.41 4.24994 7C4.24994 6.59 4.58994 6.25 4.99994 6.25H10.9999C11.4099 6.25 11.7499 6.59 11.7499 7C11.7499 7.41 11.4099 7.75 10.9999 7.75Z" fill="white"/>
</svg>
