<svg width="25" height="25" viewBox="0 0 25 25" fill="none" xmlns="http://www.w3.org/2000/svg">
<path fill-rule="evenodd" clip-rule="evenodd" d="M24.15 22.5875L18.6875 17.125C20.125 15.3875 20.9875 13.175 20.9875 10.75C20.9875 5.225 16.5125 0.75 10.9875 0.75C5.46255 0.75 0.987549 5.225 0.987549 10.75C0.987549 16.2625 5.46255 20.75 10.9875 20.75C13.4125 20.75 15.6375 19.8875 17.3625 18.45L22.825 23.9125C23.0125 24.1 23.25 24.1875 23.4875 24.1875C23.725 24.1875 23.9625 24.1 24.15 23.9125C24.5125 23.55 24.5125 22.95 24.15 22.5875ZM12 13.5625H7.00005C6.48755 13.5625 6.06255 13.1375 6.06255 12.625C6.06255 12.1125 6.48755 11.6875 7.00005 11.6875H12C12.5125 11.6875 12.9375 12.1125 12.9375 12.625C12.9375 13.1375 12.5125 13.5625 12 13.5625ZM14.5 9.8125H7.00005C6.48755 9.8125 6.06255 9.3875 6.06255 8.875C6.06255 8.3625 6.48755 7.9375 7.00005 7.9375H14.5C15.0125 7.9375 15.4375 8.3625 15.4375 8.875C15.4375 9.3875 15.0125 9.8125 14.5 9.8125Z" fill="url(#paint0_linear_595_140)"/>
<defs>
<linearGradient id="paint0_linear_595_140" x1="1.54411" y1="1.85118" x2="27.6606" y2="7.32722" gradientUnits="userSpaceOnUse">
<stop stop-color="#5C24FC"/>
<stop offset="1" stop-color="#9D7AFF"/>
</linearGradient>
</defs>
</svg>
