<svg width="18" height="19" viewBox="0 0 18 19" fill="none" xmlns="http://www.w3.org/2000/svg">
<path d="M17.83 12.1001C16.9 11.5601 16.33 10.5701 16.33 9.50012C16.33 8.43012 16.9 7.44012 17.83 6.90012C17.99 6.80012 18.05 6.60012 17.95 6.44012L16.28 3.56012C16.22 3.45012 16.11 3.39014 16 3.39014C15.94 3.39014 15.88 3.41012 15.83 3.44012C15.37 3.70012 14.85 3.84012 14.33 3.84012C13.8 3.84012 13.28 3.70011 12.81 3.43011C11.88 2.89011 11.31 1.91012 11.31 0.840118C11.31 0.650118 11.16 0.500122 10.98 0.500122H7.01999C6.83999 0.500122 6.69 0.650118 6.69 0.840118C6.69 1.91012 6.12 2.89011 5.19 3.43011C4.72 3.70011 4.20001 3.84012 3.67001 3.84012C3.15001 3.84012 2.63001 3.70012 2.17001 3.44012C2.01001 3.34012 1.81 3.40012 1.72 3.56012L0.0400085 6.44012C0.0100085 6.49012 0 6.55013 0 6.60013C0 6.72013 0.0600134 6.83012 0.170013 6.90012C1.10001 7.44012 1.67001 8.42011 1.67001 9.49011C1.67001 10.5701 1.09999 11.5601 0.179993 12.1001H0.170013C0.0100134 12.2001 -0.0500122 12.4001 0.0499878 12.5601L1.72 15.4401C1.78 15.5501 1.89 15.6101 2 15.6101C2.06 15.6101 2.12001 15.5901 2.17001 15.5601C3.11001 15.0301 4.26 15.0301 5.19 15.5701C6.11 16.1101 6.67999 17.0901 6.67999 18.1601C6.67999 18.3501 6.82999 18.5001 7.01999 18.5001H10.98C11.16 18.5001 11.31 18.3501 11.31 18.1601C11.31 17.0901 11.88 16.1101 12.81 15.5701C13.28 15.3001 13.8 15.1601 14.33 15.1601C14.85 15.1601 15.37 15.3001 15.83 15.5601C15.99 15.6601 16.19 15.6001 16.28 15.4401L17.96 12.5601C17.99 12.5101 18 12.4501 18 12.4001C18 12.2801 17.94 12.1701 17.83 12.1001ZM9 12.5001C7.34 12.5001 6 11.1601 6 9.50012C6 7.84012 7.34 6.50012 9 6.50012C10.66 6.50012 12 7.84012 12 9.50012C12 11.1601 10.66 12.5001 9 12.5001Z" fill="url(#paint0_linear_58_265)"/>
<defs>
<linearGradient id="paint0_linear_58_265" x1="0.4275" y1="1.34583" x2="20.4875" y2="5.55252" gradientUnits="userSpaceOnUse">
<stop stop-color="#5C24FC"/>
<stop offset="1" stop-color="#9D7AFF"/>
</linearGradient>
</defs>
</svg>
