<svg width="18" height="21" viewBox="0 0 18 21" fill="none" xmlns="http://www.w3.org/2000/svg">
<path d="M14.667 0.5H3.33398C1.11198 0.5 0.000976562 1.61101 0.000976562 3.83301V13.833C0.000976562 16.055 1.11198 17.166 3.33398 17.166H4.83398C5.35898 17.166 5.85299 17.413 6.16699 17.833L7.66699 19.833C8.33399 20.722 9.66698 20.722 10.334 19.833L11.834 17.833C12.149 17.413 12.643 17.166 13.167 17.166H14.667C16.889 17.166 18 16.055 18 13.833V3.83301C18 1.61101 16.889 0.5 14.667 0.5ZM13.8311 8.14301L12.031 9.90002C11.899 10.028 11.839 10.214 11.87 10.395L12.282 12.8C12.365 13.288 11.8549 13.66 11.4189 13.43L9.25903 12.293C9.09703 12.208 8.90394 12.208 8.74194 12.293L6.58398 13.429C6.14598 13.659 5.63599 13.286 5.71899 12.798L6.13098 10.395C6.16198 10.213 6.10197 10.028 5.96997 9.90002L4.17004 8.14301C3.83904 7.82001 4.02103 7.257 4.47803 7.19L6.96802 6.828C7.14902 6.802 7.30596 6.68701 7.38696 6.52301L8.46594 4.33398C8.68494 3.88998 9.31603 3.88998 9.53503 4.33398L10.614 6.52301C10.695 6.68801 10.852 6.802 11.033 6.828L13.5229 7.19C13.9799 7.256 14.1621 7.82001 13.8311 8.14301Z" fill="url(#paint0_linear_58_231)"/>
<defs>
<linearGradient id="paint0_linear_58_231" x1="0.428454" y1="1.43966" x2="20.6492" y2="5.25587" gradientUnits="userSpaceOnUse">
<stop stop-color="#FCC224"/>
<stop offset="1" stop-color="#FF8A7A"/>
</linearGradient>
</defs>
</svg>
