<svg width="18" height="21" viewBox="0 0 18 21" fill="none" xmlns="http://www.w3.org/2000/svg">
<path d="M14.667 0.500061H3.33398C1.11198 0.500061 0.000976562 1.61107 0.000976562 3.83307V13.8331C0.000976562 16.0551 1.11198 17.1661 3.33398 17.1661H4.83398C5.35898 17.1661 5.85299 17.4131 6.16699 17.8331L7.66699 19.8331C8.33399 20.7221 9.66698 20.7221 10.334 19.8331L11.834 17.8331C12.149 17.4131 12.643 17.1661 13.167 17.1661H14.667C16.889 17.1661 18 16.0551 18 13.8331V3.83307C18 1.61107 16.889 0.500061 14.667 0.500061ZM13.8311 8.14307L12.031 9.90009C11.899 10.0281 11.839 10.2141 11.87 10.3951L12.282 12.8C12.365 13.288 11.8549 13.6601 11.4189 13.4301L9.25903 12.2931C9.09703 12.2081 8.90394 12.2081 8.74194 12.2931L6.58398 13.4291C6.14598 13.6591 5.63599 13.286 5.71899 12.798L6.13098 10.3951C6.16198 10.2131 6.10197 10.0281 5.96997 9.90009L4.17004 8.14307C3.83904 7.82007 4.02103 7.25706 4.47803 7.19006L6.96802 6.82806C7.14902 6.80206 7.30596 6.68707 7.38696 6.52307L8.46594 4.33405C8.68494 3.89005 9.31603 3.89005 9.53503 4.33405L10.614 6.52307C10.695 6.68807 10.852 6.80206 11.033 6.82806L13.5229 7.19006C13.9799 7.25606 14.1621 7.82007 13.8311 8.14307Z" fill="url(#paint0_linear_58_46)"/>
<defs>
<linearGradient id="paint0_linear_58_46" x1="0.428454" y1="1.43972" x2="20.6492" y2="5.25593" gradientUnits="userSpaceOnUse">
<stop stop-color="#5C24FC"/>
<stop offset="1" stop-color="#9D7AFF"/>
</linearGradient>
</defs>
</svg>
