<svg width="19" height="19" viewBox="0 0 19 19" fill="none" xmlns="http://www.w3.org/2000/svg">
<path d="M18.25 3.5C18.25 3.914 17.914 4.25 17.5 4.25H1.5C1.086 4.25 0.75 3.914 0.75 3.5C0.75 3.086 1.086 2.75 1.5 2.75H5.71399C5.80699 2.568 5.87899 2.362 5.95599 2.132L6.15799 1.52499C6.36199 0.912994 6.93499 0.5 7.58099 0.5H11.419C12.065 0.5 12.638 0.912994 12.842 1.52499L13.044 2.132C13.121 2.362 13.193 2.568 13.286 2.75H17.5C17.914 2.75 18.25 3.086 18.25 3.5ZM16.359 5.57001L15.69 15.7C15.58 17.28 14.75 18.5 12.69 18.5H6.31C4.25 18.5 3.42 17.28 3.31 15.7L2.64099 5.57001C2.62999 5.39701 2.767 5.25 2.94 5.25H16.059C16.233 5.25 16.37 5.39701 16.359 5.57001ZM10.561 11.5L12.031 10.03C12.324 9.737 12.324 9.26199 12.031 8.96899C11.738 8.67599 11.263 8.67599 10.97 8.96899L9.5 10.439L8.03 8.96899C7.737 8.67599 7.26199 8.67599 6.96899 8.96899C6.67599 9.26199 6.67599 9.737 6.96899 10.03L8.439 11.5L6.96899 12.97C6.67599 13.263 6.67599 13.738 6.96899 14.031C7.11499 14.177 7.30699 14.251 7.49899 14.251C7.69099 14.251 7.88299 14.178 8.02899 14.031L9.49899 12.561L10.969 14.031C11.115 14.177 11.307 14.251 11.499 14.251C11.691 14.251 11.883 14.178 12.029 14.031C12.322 13.738 12.322 13.263 12.029 12.97L10.561 11.5Z" fill="url(#paint0_linear_531_822)"/>
<defs>
<linearGradient id="paint0_linear_531_822" x1="1.16563" y1="1.34571" x2="20.7135" y2="5.33113" gradientUnits="userSpaceOnUse">
<stop stop-color="#FC2424"/>
<stop offset="1" stop-color="#FF7A7A"/>
</linearGradient>
</defs>
</svg>
