<svg width="46" height="38" viewBox="0 0 46 38" fill="none" xmlns="http://www.w3.org/2000/svg">
<path d="M23.3301 19.4336V36.727" stroke="#00B2FF" stroke-width="2.51" stroke-linecap="round" stroke-linejoin="round"/>
<path d="M39.024 31.2727C40.8859 30.2612 42.3567 28.6606 43.2043 26.7235C44.0519 24.7864 44.2281 22.6231 43.7051 20.5751C43.182 18.5272 41.9895 16.7111 40.3157 15.4136C38.642 14.116 36.5823 13.4109 34.4617 13.4095H32.0565C31.4787 11.1823 30.4018 9.11461 28.9067 7.36188C27.4116 5.60916 25.5373 4.217 23.4246 3.29009C21.3119 2.36317 19.0158 1.92562 16.709 2.01032C14.4022 2.09502 12.1447 2.69977 10.1062 3.77911C8.06771 4.85844 6.30125 6.38428 4.93964 8.2419C3.57803 10.0995 2.65671 12.2406 2.24494 14.5041C1.83316 16.7677 1.94166 19.0948 2.56226 21.3105C3.18286 23.5263 4.29943 25.573 5.82801 27.2968" stroke="#00B2FF" stroke-width="2.51" stroke-linecap="round" stroke-linejoin="round"/>
<path d="M31.0164 27.1195L23.3305 19.4336L15.6445 27.1195" stroke="#00B2FF" stroke-width="2.51" stroke-linecap="round" stroke-linejoin="round"/>
</svg>
