<svg width="19" height="20" viewBox="0 0 19 20" fill="none" xmlns="http://www.w3.org/2000/svg">
<path d="M11 16.5002C11 17.2362 11.1789 17.9342 11.4969 18.5522C11.6019 18.7572 11.471 19.0002 11.241 19.0002H8H4C1.71 19.0002 0.5 17.8003 0.5 15.5203C0.5 12.9703 1.94 10.0002 6 10.0002H8H10C12.002 10.0002 13.369 10.7243 14.235 11.7603C14.37 11.9223 14.277 12.1613 14.077 12.2273C12.284 12.8183 11 14.5042 11 16.5002ZM8.00903 8.00024C10.215 8.00024 12.009 6.20624 12.009 4.00024C12.009 1.79424 10.215 0.000244141 8.00903 0.000244141C5.80303 0.000244141 4.00903 1.79424 4.00903 4.00024C4.00903 6.20624 5.80303 8.00024 8.00903 8.00024ZM18 15.7502H16.75V14.5002C16.75 14.0862 16.414 13.7502 16 13.7502C15.586 13.7502 15.25 14.0862 15.25 14.5002V15.7502H14C13.586 15.7502 13.25 16.0862 13.25 16.5002C13.25 16.9142 13.586 17.2502 14 17.2502H15.25V18.5002C15.25 18.9142 15.586 19.2502 16 19.2502C16.414 19.2502 16.75 18.9142 16.75 18.5002V17.2502H18C18.414 17.2502 18.75 16.9142 18.75 16.5002C18.75 16.0862 18.414 15.7502 18 15.7502Z" fill="url(#paint0_linear_58_30)"/>
<defs>
<linearGradient id="paint0_linear_58_30" x1="0.933438" y1="0.904681" x2="21.3591" y2="4.96554" gradientUnits="userSpaceOnUse">
<stop stop-color="#5C24FC"/>
<stop offset="1" stop-color="#9D7AFF"/>
</linearGradient>
</defs>
</svg>
