<svg width="5" height="21" viewBox="0 0 5 21" fill="none" xmlns="http://www.w3.org/2000/svg">
<path d="M2.52014 4.5C1.41614 4.5 0.515137 3.604 0.515137 2.5C0.515137 1.396 1.40513 0.5 2.51013 0.5H2.52014C3.62414 0.5 4.52014 1.396 4.52014 2.5C4.52014 3.604 3.62514 4.5 2.52014 4.5ZM4.52014 10.5C4.52014 9.396 3.62414 8.5 2.52014 8.5H2.51013C1.40613 8.5 0.515137 9.396 0.515137 10.5C0.515137 11.604 1.41514 12.5 2.52014 12.5C3.62514 12.5 4.52014 11.604 4.52014 10.5ZM4.52014 18.5C4.52014 17.396 3.62414 16.5 2.52014 16.5H2.51013C1.40613 16.5 0.515137 17.396 0.515137 18.5C0.515137 19.604 1.41514 20.5 2.52014 20.5C3.62514 20.5 4.52014 19.604 4.52014 18.5Z" fill="url(#paint0_linear_595_986)"/>
<defs>
<linearGradient id="paint0_linear_595_986" x1="0.610256" y1="1.43967" x2="5.26169" y2="1.635" gradientUnits="userSpaceOnUse">
<stop stop-color="#5C24FC"/>
<stop offset="1" stop-color="#9D7AFF"/>
</linearGradient>
</defs>
</svg>
