<svg width="21" height="21" viewBox="0 0 21 21" fill="none" xmlns="http://www.w3.org/2000/svg">
<path d="M20.5 6.05984V14.9397C20.5 15.5717 19.7689 15.9219 19.2759 15.5269L17.1121 13.7898C17.0411 13.7328 17 13.6467 17 13.5557V8.1238C17 8.0438 17.0319 7.96789 17.0879 7.91189L19.5869 5.41287C19.7029 5.29686 19.849 5.31378 19.894 5.32278C20.223 5.38878 20.5 5.66884 20.5 6.05984ZM15.01 9.98977L7.98999 17.0098C7.79899 17.2368 7.99696 17.4998 8.20996 17.4998H12.5C14.5 17.4998 15.5 16.4998 15.5 14.4998V10.2337C15.5 9.89167 15.154 9.84577 15.01 9.98977ZM20.03 0.96975C19.737 0.67675 19.262 0.67675 18.969 0.96975L15.135 4.80373C14.688 3.94073 13.814 3.49978 12.499 3.49978H3.49902C1.49902 3.49978 0.499023 4.49978 0.499023 6.49978V14.4998C0.499023 16.1458 1.18797 17.1038 2.54297 17.3948L0.968018 18.9697C0.675018 19.2627 0.675018 19.7378 0.968018 20.0308C1.11402 20.1768 1.30605 20.2508 1.49805 20.2508C1.69005 20.2508 1.88208 20.1778 2.02808 20.0308L20.0281 2.03079C20.3231 1.73679 20.323 1.26275 20.03 0.96975Z" fill="url(#paint0_linear_506_730)"/>
<defs>
<linearGradient id="paint0_linear_506_730" x1="0.974047" y1="1.66622" x2="23.2153" y2="6.44998" gradientUnits="userSpaceOnUse">
<stop stop-color="#5C24FC"/>
<stop offset="1" stop-color="#9D7AFF"/>
</linearGradient>
</defs>
</svg>
