<svg width="21" height="21" viewBox="0 0 21 21" fill="none" xmlns="http://www.w3.org/2000/svg">
<path d="M10.5 0.5C4.98 0.5 0.5 4.98 0.5 10.5C0.5 16.02 4.98 20.5 10.5 20.5C16.02 20.5 20.5 16.02 20.5 10.5C20.5 4.98 16.02 0.5 10.5 0.5ZM14 11.25H11.25V14C11.25 14.41 10.91 14.75 10.5 14.75C10.09 14.75 9.75 14.41 9.75 14V11.25H7C6.59 11.25 6.25 10.91 6.25 10.5C6.25 10.09 6.59 9.75 7 9.75H9.75V7C9.75 6.59 10.09 6.25 10.5 6.25C10.91 6.25 11.25 6.59 11.25 7V9.75H14C14.41 9.75 14.75 10.09 14.75 10.5C14.75 10.91 14.41 11.25 14 11.25Z" fill="white"/>
</svg>
